<svg width="50" height="48" viewBox="0 0 50 48" fill="none" xmlns="http://www.w3.org/2000/svg">
<g clip-path="url(#clip0_119_2922)">
<path d="M25.0001 1.59927C29.4714 1.59927 33.8423 2.91302 37.5601 5.37436C41.2778 7.83571 44.1755 11.3341 45.8866 15.4272C47.5977 19.5202 48.0454 24.0241 47.1731 28.3693C46.3008 32.7145 44.1476 36.7058 40.9859 39.8385C36.7462 44.0393 30.996 46.3993 25.0001 46.3993C19.0042 46.3993 13.2539 44.0393 9.01423 39.8385C4.77451 35.6377 2.39265 29.9402 2.39265 23.9993C2.39264 18.0585 4.77448 12.3609 9.01419 8.16012C11.1086 6.07355 13.5999 4.41931 16.3439 3.29313C19.0878 2.16696 22.03 1.59123 25.0001 1.59927ZM25.0001 -0.000732422C20.2094 -0.000732422 15.5262 1.40684 11.5429 4.044C7.5596 6.68115 4.45497 10.4294 2.62165 14.8149C0.788327 19.2003 0.308646 24.0259 1.24327 28.6814C2.17789 33.337 4.48483 37.6134 7.87237 40.9698C11.2599 44.3263 15.5759 46.6121 20.2745 47.5381C24.9732 48.4641 29.8435 47.9889 34.2695 46.1724C38.6955 44.3559 42.4785 41.2797 45.1401 37.3329C47.8017 33.3862 49.2223 28.746 49.2223 23.9993C49.2223 17.6341 46.6703 11.5296 42.1278 7.02871C37.5852 2.52784 31.4242 -0.000722662 25.0001 -0.000732422Z" fill="white" fill-opacity="0.5"/>
<path d="M12.4607 27.4314V20.59C11.8075 20.6819 11.1414 20.6107 10.5229 20.3828V27.5712C11.1471 27.3657 11.8131 27.3177 12.4607 27.4314V27.4314Z" fill="white" fill-opacity="0.5"/>
<path d="M21.2482 37.4829C21.2652 37.441 21.2828 37.3995 21.301 37.3583C21.3798 37.1813 21.4717 37.0104 21.576 36.8469C21.6516 36.7282 21.7336 36.6137 21.8215 36.5037L15.4241 32.844C15.164 33.4466 14.7565 33.9754 14.2383 34.3827L21.0244 38.2647C21.0532 38.0987 21.0927 37.9347 21.1428 37.7737C21.1738 37.6749 21.2097 37.5783 21.2482 37.4829Z" fill="white" fill-opacity="0.5"/>
<path d="M34.4976 32.9659C34.4976 32.9659 34.4938 32.958 34.4976 32.966L28.1274 36.61C28.5211 37.1379 28.7743 37.7555 28.8638 38.4058L35.7429 34.4705C35.2076 34.0798 34.7795 33.5626 34.4976 32.9659Z" fill="white" fill-opacity="0.5"/>
<path d="M32.5536 27.4314C33.502 25.8191 34.4135 24.1852 35.2882 22.5296C35.6882 21.7642 36.0793 20.9936 36.4616 20.2177C36.1891 20.0835 35.9331 19.9187 35.6987 19.7266C35.1868 20.4409 34.6857 21.1617 34.1955 21.8888C33.1731 23.4073 32.1884 24.948 31.2414 26.5109L29.4002 25.2194C29.238 25.7624 28.9717 26.2693 28.6157 26.7123C28.557 26.7859 28.4966 26.8579 28.4335 26.9276C28.4248 26.9372 28.4163 26.947 28.4075 26.9566C28.3899 26.9758 28.3713 26.9941 28.3533 27.0129L30.3855 27.9392C29.3814 29.6398 28.4175 31.3638 27.4937 33.1114C27.1175 33.8315 26.7488 34.556 26.3877 35.2849C26.6795 35.3989 26.9566 35.547 27.2132 35.7259C27.6784 35.0724 28.1349 34.4138 28.5826 33.7501C29.7186 32.0631 30.809 30.3491 31.8535 28.6083L34.4326 29.7838C34.5437 29.5221 34.6832 29.2731 34.8486 29.0412L32.5536 27.4314Z" fill="white" fill-opacity="0.5"/>
<path d="M28.2567 24.4174C28.3704 23.6793 28.2202 22.9249 27.832 22.2849C27.4439 21.6448 26.8423 21.1592 26.1312 20.912C25.42 20.6648 24.6441 20.6716 23.9375 20.9312C23.2308 21.1908 22.638 21.6868 22.2613 22.3336C21.8847 22.9803 21.7479 23.7372 21.8747 24.4732C22.0015 25.2093 22.3839 25.8783 22.9557 26.3647C23.5276 26.851 24.2529 27.1241 25.0065 27.1367C25.76 27.1494 26.4943 26.9007 27.0824 26.4338C27.716 25.9321 28.1353 25.212 28.2567 24.4174Z" fill="white" fill-opacity="0.5"/>
<path d="M28.2866 11.3551V11.3551L34.6496 14.9951C34.7415 14.8065 34.8484 14.6256 34.9693 14.454C35.0315 14.3654 35.0966 14.2789 35.1658 14.1958C35.2063 14.1472 35.2479 14.0997 35.2906 14.0531C35.4306 13.9009 35.5824 13.7598 35.7447 13.631C35.8004 13.5865 35.8574 13.5437 35.9158 13.5023L29.0039 9.54842V9.54834C28.922 10.2008 28.6753 10.8222 28.2866 11.3551Z" fill="white" fill-opacity="0.5"/>
<path d="M22.977 10.709C23.2001 10.9868 23.4773 11.2174 23.7921 11.3869C24.1069 11.5565 24.4528 11.6616 24.8095 11.696C24.8944 11.7042 24.9802 11.709 25.0672 11.709C25.1543 11.709 25.24 11.7042 25.325 11.696C25.9864 11.6311 26.6 11.3252 27.0469 10.8376C27.4938 10.3501 27.7422 9.71551 27.7439 9.0569C27.7439 8.97713 27.7388 8.89854 27.7318 8.82049C27.6726 8.16078 27.3662 7.54694 26.8731 7.09985C26.3799 6.65275 25.7357 6.40479 25.0673 6.40479C24.3988 6.40479 23.7546 6.65275 23.2614 7.09985C22.7683 7.54694 22.4619 8.16078 22.4027 8.82049C22.3957 8.89854 22.3906 8.97713 22.3906 9.0569C22.3905 9.6577 22.5973 10.2406 22.977 10.709Z" fill="white" fill-opacity="0.5"/>
<path d="M15.8491 17.144C16.7285 17.2162 17.6079 17.2742 18.4872 17.3238C20.4061 17.4265 22.325 17.4786 24.2438 17.4912L24.0404 19.5745C24.7161 19.4178 25.4191 19.4178 26.0948 19.5745L25.8914 17.4919C27.8103 17.4807 29.7291 17.4254 31.648 17.326C32.5274 17.2766 33.4069 17.2186 34.2864 17.1462V17.1461C34.2511 16.8477 34.2511 16.5463 34.2864 16.2479C33.4069 16.1754 32.5274 16.1173 31.648 16.068C29.6774 15.9626 27.7067 15.9103 25.7361 15.9011L25.4499 12.9707C25.324 12.9826 25.1966 12.9892 25.0676 12.9892C24.9386 12.9892 24.8112 12.9826 24.6853 12.9707L24.3991 15.9016C22.4285 15.9123 20.4579 15.9647 18.4872 16.0701C17.6079 16.1197 16.7285 16.1777 15.8491 16.25C15.8841 16.547 15.8841 16.847 15.8491 17.144L15.8491 17.144Z" fill="white" fill-opacity="0.5"/>
<path d="M17.4861 27.4982L15.1044 29.1689C15.2525 29.3952 15.3765 29.6361 15.4746 29.8877L18.1761 28.6564C19.215 30.3787 20.2956 32.0766 21.4178 33.7501C21.8528 34.3921 22.2947 35.03 22.7435 35.664C22.8911 35.5669 23.045 35.4797 23.2043 35.4029C23.2071 35.4016 23.2097 35.4001 23.2124 35.3988C23.3359 35.3401 23.4624 35.2877 23.5913 35.242C23.2384 34.5268 22.8769 33.8166 22.5067 33.1115C21.595 31.3784 20.6405 29.6705 19.6433 27.9876L21.7817 27.0129C21.4094 26.6253 21.1111 26.174 20.9012 25.6809C20.8629 25.5912 20.8286 25.4996 20.7962 25.407C20.7744 25.345 20.754 25.2825 20.7348 25.2193L18.7992 26.5772C17.8373 24.9932 16.8392 23.4304 15.8049 21.8889C15.3286 21.1856 14.8437 20.4873 14.3503 19.7939C14.1077 19.9822 13.8438 20.1418 13.564 20.2696C13.9367 21.0289 14.3194 21.7822 14.7122 22.5297C15.5962 24.2097 16.5208 25.8659 17.4861 27.4982Z" fill="white" fill-opacity="0.5"/>
<path d="M37.6746 28.687C37.0079 28.7981 36.4104 29.1604 36.0072 29.6982C35.604 30.2359 35.4264 30.9073 35.5116 31.5719C35.5968 32.2364 35.9381 32.8426 36.4642 33.2634C36.9903 33.6842 37.6602 33.887 38.3338 33.8294C39.0074 33.7718 39.6324 33.4582 40.0779 32.9543C40.5234 32.4504 40.7549 31.7953 40.7239 31.1261C40.6929 30.4569 40.4018 29.8256 39.9116 29.3643C39.4214 28.9029 38.77 28.6474 38.094 28.6512C37.9534 28.6522 37.8132 28.6642 37.6746 28.687Z" fill="white" fill-opacity="0.5"/>
<path d="M14.2949 30.4254C14.0731 29.8119 13.6271 29.3032 13.0451 28.9997C12.463 28.6962 11.7873 28.6201 11.1513 28.7863C10.5153 28.9526 9.96546 29.3492 9.6103 29.8977C9.25514 30.4462 9.12054 31.1068 9.2331 31.7488C9.34566 32.3909 9.69719 32.9678 10.2182 33.3655C10.7393 33.7632 11.3919 33.9528 12.0472 33.8969C12.7025 33.8409 13.3128 33.5434 13.7574 33.0633C14.2021 32.5831 14.4488 31.9551 14.4488 31.3034C14.4482 31.0042 14.3961 30.7073 14.2949 30.4254Z" fill="white" fill-opacity="0.5"/>
<path d="M15.4853 14.9951L21.8484 11.3551L21.8416 11.3457C21.7946 11.2808 21.7496 11.2145 21.7066 11.1467C21.3988 10.6621 21.2024 10.1165 21.1311 9.54834V9.54842L14.2192 13.5023C14.7606 13.8872 15.1959 14.4004 15.4853 14.9951Z" fill="white" fill-opacity="0.5"/>
<path d="M13.592 18.7545C14.0994 18.3453 14.4377 17.766 14.5429 17.1262C14.648 16.4865 14.5127 15.8307 14.1626 15.2832C13.8124 14.7356 13.2718 14.3343 12.6431 14.1553C12.0143 13.9762 11.3411 14.0319 10.751 14.3117C10.1609 14.5915 9.69487 15.076 9.44114 15.6734C9.18742 16.2709 9.16365 16.9398 9.37434 17.5535C9.58503 18.1671 10.0155 18.6829 10.5843 19.0031C11.1531 19.3234 11.8207 19.4258 12.4606 19.291C12.6494 19.2509 12.8332 19.1905 13.0088 19.1108C13.2178 19.0173 13.4138 18.8975 13.592 18.7545Z" fill="white" fill-opacity="0.5"/>
<path d="M37.6743 20.59V27.3933C37.8136 27.3787 37.9536 27.3713 38.0936 27.3712C38.6147 27.3708 39.1307 27.4723 39.6121 27.67V20.3828C38.9936 20.6107 38.3276 20.6819 37.6743 20.59Z" fill="white" fill-opacity="0.5"/>
<path d="M35.5519 16.6967C35.5454 17.4125 35.8206 18.1026 36.319 18.6208C36.8175 19.1389 37.5 19.4444 38.2219 19.4723C38.9438 19.5003 39.6483 19.2486 40.186 18.7706C40.7238 18.2926 41.0525 17.6258 41.1025 16.9117C41.1525 16.1976 40.9198 15.4923 40.4538 14.9453C39.9878 14.3983 39.3251 14.0527 38.6062 13.9816C37.8873 13.9106 37.1688 14.1197 36.6029 14.5648C36.0371 15.0098 35.6684 15.6557 35.575 16.3655C35.5603 16.4753 35.5526 16.5859 35.5519 16.6967Z" fill="white" fill-opacity="0.5"/>
<path d="M26.4576 36.7661C26.0561 36.4914 25.5864 36.3305 25.0993 36.3009C24.6122 36.2713 24.1263 36.3741 23.6938 36.5981C23.2614 36.8222 22.8989 37.1591 22.6456 37.5723C22.3923 37.9856 22.2577 38.4596 22.2563 38.9431C22.2563 38.9522 22.2576 38.9611 22.2577 38.9702C22.2642 39.6549 22.538 40.3106 23.0216 40.7997C23.5053 41.2888 24.1613 41.5735 24.8521 41.594C25.5428 41.6145 26.2148 41.3692 26.7272 40.9097C27.2395 40.4501 27.5524 39.8118 27.6002 39.1287C27.6046 39.0671 27.6097 39.0057 27.6097 38.9431C27.6103 38.3274 27.3937 37.7308 26.9973 37.2566C26.8407 37.0696 26.6592 36.9046 26.4576 36.7661Z" fill="white" fill-opacity="0.5"/>
</g>
<defs>
<clipPath id="clip0_119_2922">
<rect width="48.4444" height="48" fill="white" transform="translate(0.777832)"/>
</clipPath>
</defs>
</svg>
