<svg width="50" height="48" viewBox="0 0 50 48" fill="none" xmlns="http://www.w3.org/2000/svg">
<g clip-path="url(#clip0_119_2988)">
<path d="M24.9995 1.59951C29.4704 1.59952 33.841 2.91326 37.5584 5.37461C41.2759 7.83595 44.1733 11.3344 45.8843 15.4274C47.5952 19.5205 48.0429 24.0244 47.1706 28.3695C46.2984 32.7147 44.1455 36.706 40.984 39.8387C36.7447 44.0395 30.9949 46.3995 24.9995 46.3995C19.0042 46.3996 13.2544 44.0396 9.015 39.8388C4.77564 35.6379 2.39398 29.9404 2.39398 23.9996C2.39397 18.0587 4.77561 12.3612 9.01496 8.16037C11.1092 6.0738 13.6003 4.41955 16.344 3.29338C19.0878 2.1672 22.0297 1.59147 24.9995 1.59951ZM24.9995 -0.000488281C20.2092 -0.000488281 15.5265 1.40709 11.5435 4.04424C7.56049 6.68139 4.45613 10.4297 2.62296 14.8151C0.789791 19.2005 0.310151 24.0261 1.24469 28.6817C2.17923 33.3372 4.48598 37.6136 7.87324 40.9701C11.2605 44.3265 15.5761 46.6123 20.2744 47.5383C24.9726 48.4644 29.8425 47.9891 34.2682 46.1726C38.6938 44.3561 42.4765 41.28 45.1378 37.3332C47.7992 33.3864 49.2197 28.7463 49.2197 23.9995C49.2197 17.6343 46.6679 11.5298 42.1257 7.02896C37.5836 2.52809 31.4231 -0.000478521 24.9995 -0.000488281Z" fill="#F04451"/>
<path d="M24.9984 27.5902C25.67 27.591 26.3352 27.4597 26.9552 27.2039C27.5753 26.948 28.1379 26.5728 28.6105 26.0998C29.0831 25.6269 29.4562 25.0657 29.7083 24.4488C29.9603 23.8318 30.0862 23.1715 30.0788 22.506V13.9538C30.0848 13.2886 29.9578 12.6288 29.705 12.0125C29.4522 11.3963 29.0788 10.8357 28.6062 10.3633C28.1335 9.89088 27.5711 9.51592 26.9515 9.26009C26.3318 9.00426 25.6671 8.87263 24.9957 8.8728C24.3244 8.87297 23.6598 9.00494 23.0402 9.26108C22.4207 9.51723 21.8585 9.89247 21.3861 10.3651C20.9137 10.8378 20.5405 11.3985 20.2881 12.0149C20.0357 12.6313 19.909 13.2912 19.9153 13.9564V22.5085C19.9079 23.1741 20.034 23.8346 20.2863 24.4515C20.5385 25.0684 20.9119 25.6295 21.3848 26.1023C21.8577 26.575 22.4206 26.95 23.041 27.2054C23.6613 27.4608 24.3266 27.5916 24.9984 27.5902ZM20.7545 15.1659V14.0745C20.7545 12.9587 21.2018 11.8886 21.998 11.0996C22.7942 10.3106 23.8741 9.86737 25.0002 9.86737C26.1262 9.86737 27.2061 10.3106 28.0023 11.0996C28.7986 11.8886 29.2459 12.9587 29.2459 14.0745V15.176C29.2459 15.3881 29.1608 15.5916 29.0094 15.7416C28.858 15.8917 28.6527 15.976 28.4385 15.976C28.2244 15.976 28.0191 15.8917 27.8677 15.7416C27.7163 15.5916 27.6312 15.3881 27.6312 15.176V14.0745C27.6312 13.383 27.354 12.7199 26.8606 12.231C26.3672 11.742 25.698 11.4674 25.0002 11.4674C24.3024 11.4674 23.6332 11.742 23.1397 12.231C22.6463 12.7199 22.3691 13.383 22.3691 14.0745V15.1659C22.3691 15.3781 22.2841 15.5815 22.1327 15.7316C21.9813 15.8816 21.7759 15.9659 21.5618 15.9659C21.3477 15.9659 21.1423 15.8816 20.9909 15.7316C20.8395 15.5815 20.7545 15.3781 20.7545 15.1659Z" fill="#F04451"/>
<path d="M35.3929 18.0397C35.136 18.0397 34.8896 18.1408 34.7079 18.3208C34.5262 18.5009 34.4241 18.7451 34.4241 18.9997V22.2992C34.4211 24.409 33.6984 26.4558 32.3733 28.1072C31.0482 29.7586 29.1986 30.9176 27.1249 31.396V30.7348C27.1249 30.1761 26.901 29.6403 26.5023 29.2452C26.1036 28.8501 25.5628 28.6282 24.999 28.6282C24.4351 28.6282 23.8944 28.8501 23.4957 29.2452C23.097 29.6403 22.873 30.1761 22.873 30.7348V31.396C20.7993 30.9176 18.9498 29.7586 17.6247 28.1072C16.2996 26.4558 15.5769 24.409 15.5738 22.2992V18.9693C15.5738 18.7147 15.4718 18.4705 15.2901 18.2905C15.1084 18.1104 14.862 18.0093 14.605 18.0093C14.3481 18.0093 14.1017 18.1104 13.92 18.2905C13.7383 18.4705 13.6362 18.7147 13.6362 18.9693V22.2992C13.6399 24.9187 14.5638 27.4552 16.2493 29.4732C17.9348 31.4912 20.2768 32.8648 22.873 33.358V37.4534H19.4352C19.1783 37.4534 18.9318 37.5546 18.7502 37.7346C18.5685 37.9146 18.4664 38.1588 18.4664 38.4134C18.4664 38.668 18.5685 38.9122 18.7502 39.0923C18.9318 39.2723 19.1783 39.3734 19.4352 39.3734H30.5628C30.8197 39.3734 31.0661 39.2723 31.2478 39.0923C31.4295 38.9122 31.5316 38.668 31.5316 38.4134C31.5316 38.1588 31.4295 37.9146 31.2478 37.7346C31.0661 37.5546 30.8197 37.4534 30.5628 37.4534H27.1249V33.358C29.7212 32.8648 32.0631 31.4912 33.7486 29.4732C35.4341 27.4552 36.3581 24.9187 36.3617 22.2992V18.9997C36.3617 18.7451 36.2596 18.5009 36.078 18.3209C35.8963 18.1408 35.6499 18.0397 35.3929 18.0397Z" fill="#F04451"/>
</g>
<defs>
<clipPath id="clip0_119_2988">
<rect width="48.4404" height="48" fill="white" transform="translate(0.779785)"/>
</clipPath>
</defs>
</svg>
