<svg width="35" height="35" viewBox="0 0 35 35" fill="none" xmlns="http://www.w3.org/2000/svg">
<path d="M29.9011 14.5828C29.7229 14.4657 29.5382 14.3588 29.3478 14.2627C28.7401 13.9715 28.1042 13.7432 27.45 13.5814C26.1103 13.2368 24.7469 12.9922 23.3709 12.8497C22.9963 12.8078 22.6255 12.7691 22.2552 12.7353C21.9386 12.7065 21.6223 12.6812 21.304 12.6622C20.3803 12.6073 19.4383 12.5433 18.5237 12.5433C16.8565 12.5028 15.1883 12.5471 13.5255 12.6759C13.2609 12.697 12.9954 12.7178 12.7302 12.7403C12.363 12.7715 11.9961 12.8065 11.6323 12.8543C10.8458 12.9503 10.0592 13.0692 9.27728 13.2018C8.44168 13.3429 7.61779 13.5462 6.81249 13.8101C6.29113 13.9693 5.78949 14.1872 5.31716 14.4594C5.05706 14.6011 4.82961 14.7958 4.64951 15.031C4.53835 15.1654 4.47754 15.3344 4.47754 15.5089C4.47754 15.6833 4.53835 15.8523 4.64951 15.9867C4.72577 16.0919 4.81487 16.1872 4.91474 16.2703C5.16301 16.4905 5.44178 16.6738 5.74243 16.8145C6.39315 17.1072 7.06984 17.3384 7.76365 17.5049C8.48305 17.6985 9.21283 17.8512 9.94949 17.9622L11.7786 18.2092C12.149 18.2549 12.5149 18.2823 12.8853 18.3189C12.8704 18.3033 12.8514 18.2922 12.8304 18.2869C12.5377 18.1634 12.2405 18.0491 11.957 17.9119C11.6661 17.7817 11.4071 17.5898 11.1979 17.3495C11.0604 17.2071 10.9836 17.0169 10.9836 16.819C10.9836 16.6211 11.0604 16.4309 11.1979 16.2885C11.3675 16.093 11.5703 15.9289 11.7969 15.8038C12.3728 15.4913 12.988 15.2575 13.6261 15.1087C14.0273 15.0079 14.4315 14.9213 14.8387 14.8489C15.391 14.7499 15.9471 14.6764 16.507 14.6286C17.3073 14.5554 18.1076 14.5234 18.9078 14.5234C19.4147 14.5204 19.9212 14.5338 20.4272 14.5634C21.1182 14.603 21.8068 14.6719 22.493 14.7703C23.3235 14.8809 24.1423 15.0661 24.9395 15.3237C25.3777 15.4601 25.7959 15.6539 26.1833 15.8999C26.3848 16.0157 26.5606 16.1713 26.7001 16.3572C26.7979 16.4843 26.851 16.6403 26.851 16.8007C26.851 16.9612 26.7979 17.1172 26.7001 17.2443C26.5749 17.4141 26.42 17.5597 26.2428 17.6741L26.1696 17.7291H26.229C26.8788 17.5926 27.5201 17.4185 28.1496 17.2077C28.7017 17.0447 29.2316 16.8143 29.7273 16.5218C29.9147 16.4308 30.0818 16.3029 30.2185 16.1458C30.3553 15.9886 30.4588 15.8054 30.523 15.6072V15.4106C30.4317 15.064 30.2085 14.7669 29.9011 14.5828Z" fill="white"/>
<path d="M25.6437 19.2929C24.5645 19.4896 23.4807 19.6496 22.3878 19.7502C21.5659 19.8261 20.7744 19.89 19.9252 19.9354C19.853 19.9393 19.7812 19.9433 19.708 19.9469C18.7752 19.9926 17.8834 19.988 16.9049 19.9926C16.2861 19.9955 15.6675 19.9747 15.0499 19.9406C14.6907 19.9208 14.3318 19.8977 13.9736 19.8691C13.3837 19.8234 12.7892 19.7777 12.2039 19.7091C11.4722 19.6176 10.7406 19.517 10.0135 19.4027C9.05475 19.2532 8.10515 19.0501 7.16912 18.7945C6.53479 18.6346 5.91401 18.4251 5.31251 18.168C5.09304 18.0674 4.85983 17.9485 4.63574 17.8341V17.8707C4.8217 18.6482 5.00157 19.4164 5.17536 20.1755C5.5168 21.6998 5.85672 23.2241 6.19512 24.7484C6.28657 25.1645 6.37802 25.5807 6.47402 25.9922C6.47774 26.0057 6.4841 26.0183 6.49274 26.0293C6.50138 26.0403 6.51212 26.0494 6.52434 26.0562L7.77274 26.3032V26.2346C7.82306 25.1782 7.87336 24.1082 7.93279 23.0335C7.93876 22.7092 7.99112 22.3874 8.08828 22.0778C8.11302 21.9975 8.1594 21.9256 8.22233 21.87C8.28526 21.8143 8.3623 21.7771 8.445 21.7623C8.5185 21.7477 8.59472 21.7567 8.66284 21.7879C8.73097 21.8191 8.78754 21.8709 8.82452 21.9361C8.8849 22.0241 8.93405 22.1194 8.97084 22.2196C9.03536 22.4099 9.08882 22.6038 9.13093 22.8003C9.21321 23.2165 9.28637 23.6326 9.35497 24.0533C9.42727 24.5148 9.49246 24.9733 9.55901 25.4315C9.58081 25.5818 9.6022 25.7322 9.6248 25.8825C9.65682 26.1294 9.6934 26.3763 9.72999 26.6279C10.8595 26.7788 11.9981 26.8885 13.1459 26.9663C13.1551 26.9427 13.1612 26.9182 13.1642 26.8931C13.2099 25.9968 13.2465 25.1005 13.3014 24.2088C13.3067 23.7295 13.3744 23.253 13.5026 22.7912C13.5276 22.6992 13.5776 22.6159 13.647 22.5505C13.7164 22.4851 13.8026 22.4402 13.8959 22.4208C13.9831 22.3991 14.0751 22.4066 14.1576 22.4421C14.2402 22.4776 14.3089 22.5392 14.3532 22.6174C14.4601 22.7632 14.5349 22.9299 14.5727 23.1067C14.591 23.189 14.5864 23.189 14.623 23.3536C14.6596 23.5183 14.7236 23.6601 14.7464 23.8109C14.9202 24.8764 15.0848 25.9419 15.254 27.012C15.2632 27.076 15.2769 27.076 15.3272 27.076C15.7068 27.1035 16.0817 27.1035 16.4567 27.1035C17.5222 27.0988 18.5923 27.076 19.6577 27.076C19.6989 27.076 19.7401 27.0806 19.7401 27.0211C19.827 26.4266 19.9093 25.8322 20.0053 25.2377C20.0876 24.7164 20.1791 24.1951 20.2751 23.6738C20.2985 23.5468 20.3353 23.4226 20.3849 23.3034C20.4148 23.2457 20.4275 23.1806 20.4214 23.1159C20.4644 22.9157 20.5554 22.7289 20.6867 22.5717C20.7514 22.4903 20.8445 22.4363 20.9473 22.4208C21.0591 22.4094 21.1715 22.4344 21.2679 22.492C21.3644 22.5497 21.4395 22.637 21.4823 22.7409C21.5322 22.8616 21.569 22.9873 21.5921 23.1159C21.6424 23.5274 21.6927 23.939 21.7201 24.3551C21.7705 25.192 21.8024 26.0334 21.8436 26.8748C21.8414 26.9053 21.8414 26.9358 21.8436 26.9663C22.9777 26.8885 24.1301 26.7788 25.2641 26.6279L25.3464 26.0425C25.3741 25.846 25.4028 25.6438 25.4319 25.4421C25.4848 25.0758 25.5387 24.7115 25.5888 24.3871C25.6665 23.8841 25.7534 23.3857 25.8449 22.8827C25.8678 22.75 25.9226 22.6266 25.9501 22.4939C25.9775 22.2808 26.0612 22.0788 26.1924 21.9086C26.2192 21.871 26.2532 21.8391 26.2925 21.8147C26.3317 21.7904 26.3755 21.7741 26.4211 21.7669C26.5164 21.759 26.6118 21.7813 26.6939 21.8305C26.7759 21.8797 26.8404 21.9534 26.8784 22.0413C26.9251 22.1623 26.9589 22.288 26.979 22.4162C27.0339 22.9924 27.0887 23.5686 27.1207 24.1448C27.1619 24.7987 27.1756 25.448 27.203 26.0974V26.3306L28.4514 26.0837C28.4743 26.0791 28.5017 26.0197 28.5017 26.0197C28.5292 25.9145 28.5521 25.8093 28.575 25.7041C29.1572 23.0976 29.741 20.488 30.3263 17.8753V17.8296C29.9474 18.0511 29.5477 18.2349 29.1328 18.3783C27.9963 18.7767 26.8295 19.0826 25.6437 19.2929Z" fill="white"/>
<path d="M12.6151 11.6241V11.8619L13.1409 11.8161V11.6698C13.1089 11.0845 13.0769 10.4946 13.0403 9.90926C13.0403 9.84978 13.0541 9.80408 13.1135 9.80408L15.3451 9.00379L16.2002 8.70199L16.2185 8.6837L12.9672 8.19895C12.9654 8.1807 12.9654 8.16233 12.9672 8.14408L12.9668 8.13852C12.9619 8.06957 12.9297 8.00541 12.8775 7.96014C12.8252 7.91488 12.7572 7.89222 12.6882 7.89715C12.6851 7.89715 12.682 7.8972 12.6789 7.8973C12.6098 7.89974 12.5445 7.92952 12.4974 7.98009C12.4502 8.03067 12.4251 8.09789 12.4275 8.16698C12.4252 8.202 12.4252 8.23714 12.4275 8.27216C12.455 8.74774 12.4824 9.23244 12.5053 9.68973L12.6151 11.6241Z" fill="white"/>
<path d="M7.20131 12.534V12.7764L7.69518 12.6392C7.72259 12.6346 7.72259 12.5843 7.72259 12.5843C7.71347 12.4197 7.69062 12.2551 7.69062 12.0905C7.68145 12.0173 7.69518 11.9853 7.7729 11.9578L10.7682 10.8604L10.8299 10.8398L10.8368 10.8375L10.8261 10.836L7.59 10.3802C7.58311 10.3439 7.58311 10.3067 7.59 10.2704C7.57848 10.2007 7.53973 10.1384 7.48227 10.0972C7.42481 10.0561 7.35335 10.0394 7.28361 10.0509C7.21388 10.0625 7.15157 10.1012 7.11041 10.1587C7.06924 10.2161 7.05259 10.2876 7.06411 10.3573C7.10525 11.0798 7.151 11.807 7.20131 12.534Z" fill="white"/>
<path d="M17.8925 11.121L21.0981 10.1469L17.8971 9.48847C17.8997 9.46261 17.8997 9.43655 17.8971 9.4107C17.8907 9.34825 17.8624 9.29009 17.8172 9.24655C17.772 9.20302 17.7128 9.17693 17.6502 9.17293C17.6121 9.16877 17.5736 9.17304 17.5374 9.18546C17.5012 9.19787 17.4681 9.21811 17.4406 9.24475C17.4131 9.27138 17.3918 9.30375 17.3782 9.33956C17.3647 9.37536 17.3592 9.41371 17.3621 9.45189V11.4319H17.8925L17.8925 11.121Z" fill="white"/>
</svg>
