<svg width="55" height="55" viewBox="0 0 55 55" fill="none" xmlns="http://www.w3.org/2000/svg">
<rect width="55" height="55" rx="15" fill="#141523"/>
<path fill-rule="evenodd" clip-rule="evenodd" d="M46.5717 25.6266H44.9927C44.7964 24.249 44.4201 22.9206 43.9292 21.6659L45.3036 20.8459C45.6145 20.6819 45.7372 20.2719 45.5736 20.0259L43.7083 16.7458C43.602 16.4588 43.2175 16.3768 42.8902 16.5818L41.4994 17.3608C40.6813 16.344 39.6996 15.36 38.6361 14.54L39.4378 13.1459C39.6014 12.8179 39.536 12.4489 39.2578 12.2849L36.0181 10.4398C35.74 10.2758 35.3637 10.407 35.2 10.7105L34.3819 12.1045C33.1384 11.6125 31.8213 11.2435 30.455 11.0385V9.45582C30.455 9.09501 30.1851 8.7998 29.866 8.7998H26.1518C25.8246 8.7998 25.5791 9.09501 25.5791 9.45582V11.0631C24.1884 11.2599 22.8794 11.6207 21.6277 12.1291L20.8096 10.7351C20.646 10.4234 20.3187 10.3004 19.9915 10.4562L16.7927 12.3259C16.5145 12.4899 16.4409 12.8589 16.6127 13.1705L17.4144 14.5646C16.3509 15.4174 15.3692 16.385 14.5265 17.4674L13.1358 16.6638C12.8412 16.4178 12.4567 16.4998 12.3013 16.8278L10.5015 20.0259C10.3378 20.2719 10.4687 20.6819 10.7796 20.8459L12.154 21.6659C11.6632 22.896 11.3032 24.208 11.0905 25.602H9.45429C9.1025 25.602 8.7998 25.848 8.7998 26.1761V29.899C8.7998 30.227 9.1025 30.473 9.45429 30.473H11.0414C11.2378 31.867 11.5977 33.179 12.1049 34.4419L10.7387 35.2619C10.4115 35.4259 10.2969 35.7867 10.4606 36.0819L12.3177 39.2964C12.4813 39.567 12.8658 39.649 13.1685 39.4604L14.5347 38.6814C15.3937 39.7638 16.3673 40.7314 17.439 41.5925L16.6536 42.9537C16.49 43.2817 16.5063 43.6343 16.8172 43.7983L20.0078 45.6598C20.2778 45.8238 20.6623 45.6926 20.8259 45.3892L21.6031 44.0197C22.8467 44.5363 24.172 44.8971 25.5546 45.0857V46.6438C25.5546 47.021 25.8164 47.2998 26.1273 47.2998H29.8824C30.2096 47.2998 30.455 47.021 30.455 46.6438V45.0857C31.8458 44.9053 33.1793 44.5363 34.4392 44.0197L35.2164 45.3892C35.3964 45.6844 35.7645 45.7992 36.0345 45.6516L39.2578 43.7655C39.5442 43.6015 39.6178 43.2161 39.4378 42.9045L38.6606 41.5679C39.7242 40.7232 40.7059 39.7474 41.5567 38.665L42.9229 39.4686C43.2338 39.6572 43.6183 39.5752 43.7738 39.3046L45.6391 36.0737C45.8027 35.8031 45.68 35.4177 45.3691 35.2537L44.0028 34.4665C44.5101 33.2364 44.87 31.8998 45.0664 30.514H46.6453C46.9726 30.514 47.2998 30.268 47.2998 29.94V26.2499C47.2998 25.9218 46.9726 25.6758 46.6453 25.6758L46.5717 25.6266Z" fill="#139BEA"/>
<path fill-rule="evenodd" clip-rule="evenodd" d="M34.5465 29.3471C34.2552 28.7309 33.7607 28.0999 33.0516 27.4579L33.0172 27.4468C33.3315 26.9228 33.5538 26.4801 33.6688 26.1258C33.7837 25.7716 33.8489 25.3473 33.8489 24.8565C33.8489 23.6057 33.4656 22.5209 32.7373 21.5984C31.9708 20.676 30.9857 20.0708 29.786 19.783C29.7423 19.7754 29.7006 19.7681 29.6599 19.7609C29.5224 19.7365 29.3973 19.7144 29.2493 19.6945C29.0577 19.6723 28.8661 19.6502 28.6361 19.6354C28.3678 19.6133 28.0995 19.5985 27.7928 19.5985L27.6585 19.5954C27.3593 19.5884 27.005 19.5801 26.5931 19.5801H24.117C23.2431 19.5801 22.5455 19.8531 21.9705 20.3918C21.4263 20.9158 21.1273 21.6095 21.1196 22.4581V32.8598C21.1196 33.3985 21.1273 33.7564 21.1388 33.9298C21.1503 34.1106 21.1618 34.2508 21.1771 34.3615C21.2385 34.5829 21.3228 34.7969 21.4454 35.0257C21.5681 35.2545 21.7176 35.4685 21.8939 35.653C22.2005 35.9851 22.5455 36.2433 22.8905 36.354C23.2354 36.4647 23.7337 36.5201 24.3853 36.5201H28.9849C29.5598 36.5201 30.0198 36.5053 30.4414 36.4684C30.8247 36.4352 31.208 36.3688 31.5146 36.2765C31.8213 36.1843 32.1279 36.0588 32.3962 35.9002C32.6607 35.7378 32.9328 35.5312 33.2165 35.2729C34.3932 34.2435 34.9796 32.9815 34.9796 31.4945C34.9796 30.6754 34.8378 29.9669 34.5465 29.3471ZM26.9189 31.299H27.858C28.3678 31.299 28.7012 31.2547 28.8737 31.1624C29.0462 31.0702 29.119 30.8931 29.119 30.6459C29.119 30.3876 29.0194 30.2031 28.8124 30.0924C28.6054 29.9817 28.2988 29.9374 27.8388 29.9374H26.9189V31.299ZM27.5743 26.1332H26.8844L26.9036 26.1221V24.8307H27.5168C27.927 24.8307 28.2106 24.875 28.3869 24.9783C28.5594 25.0816 28.6476 25.2477 28.6476 25.4875C28.6476 25.7273 28.5709 25.8897 28.4176 25.9856C28.2528 26.0779 27.973 26.1332 27.5743 26.1332Z" fill="#FAFAFA"/>
</svg>
