<svg width="55" height="55" viewBox="0 0 55 55" fill="none" xmlns="http://www.w3.org/2000/svg">
<rect width="55" height="55" rx="15" fill="#141523"/>
<path d="M41.659 14.4273C49.1801 21.9513 49.1801 34.1342 41.659 41.6568C34.1391 49.1808 21.9608 49.1808 14.4397 41.6568C6.91985 34.1342 6.91985 21.9513 14.4397 14.4273C21.9608 6.92396 34.1584 6.92396 41.659 14.4273ZM39.8451 16.2432C33.3317 9.72729 22.767 9.72729 16.2548 16.2432C9.74267 22.7577 9.74267 33.3265 16.2548 39.8423C22.767 46.3569 33.3317 46.3569 39.8451 39.8423C46.3573 33.3265 46.3573 22.7577 39.8451 16.2432Z" fill="#2EB3DF"/>
<path d="M44.6037 15.3353C44.6037 15.8412 44.5041 16.3421 44.3106 16.8095C44.1171 17.277 43.8334 17.7017 43.4758 18.0594C43.1182 18.4171 42.6936 18.7009 42.2264 18.8945C41.7592 19.0881 41.2584 19.1878 40.7527 19.1878C40.247 19.1878 39.7462 19.0881 39.2789 18.8945C38.8117 18.7009 38.3872 18.4171 38.0296 18.0594C37.672 17.7017 37.3883 17.277 37.1948 16.8095C37.0012 16.3421 36.9016 15.8412 36.9016 15.3353C36.9016 14.3135 37.3074 13.3336 38.0296 12.6111C38.7518 11.8886 39.7313 11.4828 40.7527 11.4828C41.774 11.4828 42.7536 11.8886 43.4758 12.6111C44.198 13.3336 44.6037 14.3135 44.6037 15.3353ZM36.2161 19.8735C37.2898 20.9455 38.1416 22.2187 38.7228 23.6204C39.3039 25.0221 39.6031 26.5246 39.6031 28.0421C39.6031 29.5596 39.3039 31.0621 38.7228 32.4638C38.1416 33.8655 37.2898 35.1387 36.2161 36.2107C35.1446 37.2851 33.8718 38.1375 32.4705 38.7191C31.0693 39.3007 29.5671 39.6001 28.05 39.6001C26.5329 39.6001 25.0307 39.3007 23.6294 38.7191C22.2281 38.1375 20.9553 37.2851 19.8838 36.2107C18.8101 35.1387 17.9583 33.8655 17.3772 32.4638C16.796 31.0621 16.4968 29.5596 16.4968 28.0421C16.4968 26.5246 16.796 25.0221 17.3772 23.6204C17.9583 22.2187 18.8101 20.9455 19.8838 19.8735C24.3998 15.3751 31.7194 15.3751 36.2161 19.8735Z" fill="#2EB3DF"/>
</svg>
