<svg width="26" height="26" viewBox="0 0 26 26" fill="none" xmlns="http://www.w3.org/2000/svg">
<path fill-rule="evenodd" clip-rule="evenodd" d="M22.1967 4.8637C22.4896 4.57081 22.4896 4.09594 22.1967 3.80304C21.9038 3.51015 21.4289 3.51015 21.136 3.80304L12.9997 11.9394L4.86334 3.80305C4.57045 3.51016 4.09557 3.51016 3.80268 3.80305C3.50979 4.09594 3.50979 4.57082 3.80268 4.86371L11.939 13L3.80268 21.1364C3.50978 21.4293 3.50978 21.9041 3.80268 22.197C4.09557 22.4899 4.57044 22.4899 4.86334 22.197L12.9997 14.0607L21.136 22.197C21.4289 22.4899 21.9038 22.4899 22.1967 22.197C22.4896 21.9042 22.4896 21.4293 22.1967 21.1364L14.0603 13L22.1967 4.8637Z" fill="white"/>
</svg>
