<svg width="19" height="27" viewBox="0 0 19 27" fill="none" xmlns="http://www.w3.org/2000/svg">
<path d="M18.2064 5.37027C18.1937 5.37046 18.1809 5.37115 18.1683 5.37233C18.064 5.3634 17.9592 5.3634 17.8549 5.37233C17.5779 5.39474 17.3015 5.32209 17.0714 5.16636C14.6759 3.72913 12.2761 2.3053 9.8807 0.868083C9.77955 0.790033 9.65658 0.745501 9.52906 0.740671C9.40143 0.735853 9.27543 0.770993 9.1688 0.841191C6.88085 2.2113 4.5838 3.56797 2.3004 4.94701C1.88652 5.25939 1.37669 5.41773 0.858653 5.39475C0.792853 5.38131 0.724884 5.38284 0.659749 5.39923C0.594626 5.41562 0.534017 5.44644 0.482427 5.48944C0.430825 5.53243 0.38956 5.58647 0.361689 5.64757C0.333805 5.70866 0.320027 5.77525 0.32138 5.84239V5.84254C0.32138 6.11115 0.5318 6.29024 0.854197 6.29024H1.70042V21.3433C1.69062 21.4412 1.71059 21.5396 1.75772 21.626C1.80485 21.7122 1.87696 21.7823 1.96457 21.8269C4.40623 23.2715 6.84351 24.7238 9.27625 26.1834C9.3361 26.2301 9.40913 26.2567 9.48508 26.2595H9.51506C9.59101 26.2567 9.66405 26.2301 9.7239 26.1834C12.1597 24.7177 14.5983 23.2612 17.0401 21.8134C17.1285 21.7707 17.2018 21.7019 17.2498 21.6163C17.2979 21.5305 17.3184 21.4322 17.3087 21.3344V6.28577H18.1818C18.2955 6.30049 18.4104 6.27094 18.5029 6.20324C18.5955 6.13552 18.6585 6.03484 18.6788 5.92202V5.76036C18.659 5.64991 18.6006 5.55008 18.5141 5.47864C18.4276 5.4072 18.3185 5.36879 18.2064 5.37027ZM4.73605 4.54853C6.25843 3.653 7.7807 2.72621 9.30751 1.83072C9.36713 1.80276 9.43211 1.78827 9.4978 1.78827C9.5636 1.78827 9.62858 1.80276 9.68808 1.83072C11.6044 2.95901 13.5163 4.10525 15.4236 5.24251C15.464 5.26488 15.4998 5.30069 15.5849 5.35893H3.39286L4.73605 4.54853ZM3.38129 7.22756C3.44938 7.20917 3.52086 7.2071 3.5899 7.22153L3.6033 7.23497H15.3386C15.4633 7.22692 15.5881 7.24754 15.7036 7.29527C15.8054 7.33978 15.8876 7.41935 15.9357 7.51947C15.9836 7.6196 15.994 7.73364 15.965 7.84074C15.9359 7.94795 15.8694 8.04105 15.7775 8.10324C15.6854 8.16554 15.5743 8.1926 15.464 8.17965H3.63018C3.28988 8.17965 3.0929 8.03639 3.06601 7.77669C3.03711 7.66217 3.05383 7.54087 3.11265 7.43842C3.17148 7.33597 3.26779 7.26037 3.38128 7.22757L3.38129 7.22756ZM15.7018 20.814C15.6986 20.8158 15.6955 20.8177 15.6923 20.8194V20.8508C15.1595 21.1776 14.6223 21.4911 14.0849 21.8089L9.90753 24.3029C9.77768 24.3791 9.63441 24.4327 9.50013 24.4954C9.37471 24.4372 9.26271 24.4013 9.1688 24.3477L3.38394 20.8866C3.07499 20.703 2.98094 20.4389 3.1242 20.1882C3.26752 19.9374 3.54957 19.8792 3.87201 20.0717C5.645 21.1284 7.41658 22.1881 9.18665 23.2507C9.27578 23.3175 9.38416 23.3537 9.49558 23.3537C9.607 23.3537 9.71538 23.3175 9.80451 23.2507C11.5328 22.1984 13.2745 21.1687 15.0118 20.1165L15.2133 20.0001C15.2667 19.968 15.3259 19.9468 15.3876 19.9376C15.4492 19.9283 15.5121 19.9315 15.5725 19.9465C15.6331 19.9617 15.6899 19.9885 15.74 20.0256C15.7901 20.0627 15.8323 20.1093 15.8644 20.1627C15.8965 20.2162 15.9177 20.2754 15.9269 20.3371C15.9362 20.3987 15.9331 20.4616 15.918 20.5221C15.9029 20.5825 15.876 20.6394 15.8389 20.6895C15.8018 20.7396 15.7552 20.7819 15.7018 20.814ZM9.51798 19.3643C9.05703 19.3795 8.59795 19.2978 8.17071 19.1243C7.74336 18.9507 7.35731 18.6892 7.03753 18.3568C6.61461 17.9165 6.33823 17.3562 6.24641 16.7526C6.13348 16.139 6.142 15.471 6.142 14.7749C6.142 13.4048 6.10618 12.1646 7.03753 11.2154C7.06681 11.1849 7.09726 11.1556 7.1276 11.1263C7.4426 10.8223 7.815 10.5842 8.22321 10.4256C8.63131 10.2672 9.06695 10.1917 9.50456 10.2035C10.4436 10.2035 11.2807 10.4992 11.8944 11.1046C12.3809 11.5846 12.727 12.2591 12.8716 13.1362H10.6328C10.598 12.8638 10.4623 12.6144 10.2526 12.4371C10.043 12.2597 9.77453 12.1673 9.50013 12.1781C9.33738 12.1695 9.17498 12.1992 9.02576 12.2645C8.87655 12.3297 8.7446 12.4289 8.64041 12.5542C8.6284 12.5703 8.6165 12.5867 8.60483 12.6037C8.43076 12.8567 8.31001 13.2225 8.30488 14.6941C8.30476 14.7268 8.30453 14.7591 8.30453 14.7929C8.30453 16.4495 8.45678 16.7494 8.65383 17.0181C8.75871 17.1426 8.89078 17.2412 9.03988 17.3064C9.18886 17.3716 9.35103 17.4017 9.51355 17.3942C9.78806 17.4054 10.0567 17.3131 10.2665 17.1357C10.4763 16.9582 10.6117 16.7086 10.6463 16.436H12.885C12.8639 16.5643 12.8384 16.6882 12.8087 16.8075C12.3812 18.5376 11.0926 19.3643 9.51798 19.3643Z" fill="white"/>
</svg>
