<svg width="35" height="35" viewBox="0 0 35 35" fill="none" xmlns="http://www.w3.org/2000/svg">
<path d="M7.84893 14.2638C9.17829 14.2638 10.256 13.1861 10.256 11.8567C10.256 10.5274 9.17829 9.44971 7.84893 9.44971C6.51956 9.44971 5.44189 10.5274 5.44189 11.8567C5.44189 13.1861 6.51956 14.2638 7.84893 14.2638Z" fill="white"/>
<path d="M7.84893 25.545C9.17829 25.545 10.256 24.4674 10.256 23.138C10.256 21.8086 9.17829 20.731 7.84893 20.731C6.51956 20.731 5.44189 21.8086 5.44189 23.138C5.44189 24.4674 6.51956 25.545 7.84893 25.545Z" fill="white"/>
<path d="M17.4973 31.0765C18.8267 31.0765 19.9043 29.9988 19.9043 28.6695C19.9043 27.3401 18.8267 26.2625 17.4973 26.2625C16.168 26.2625 15.0903 27.3401 15.0903 28.6695C15.0903 29.9988 16.168 31.0765 17.4973 31.0765Z" fill="white"/>
<path d="M27.1463 25.545C28.4757 25.545 29.5533 24.4674 29.5533 23.138C29.5533 21.8086 28.4757 20.731 27.1463 20.731C25.8169 20.731 24.7393 21.8086 24.7393 23.138C24.7393 24.4674 25.8169 25.545 27.1463 25.545Z" fill="white"/>
<path d="M27.1463 14.2638C28.4757 14.2638 29.5533 13.1861 29.5533 11.8567C29.5533 10.5274 28.4757 9.44971 27.1463 9.44971C25.8169 9.44971 24.7393 10.5274 24.7393 11.8567C24.7393 13.1861 25.8169 14.2638 27.1463 14.2638Z" fill="white"/>
<path d="M17.4973 8.73222C18.8267 8.73222 19.9043 7.65457 19.9043 6.32522C19.9043 4.99587 18.8267 3.91821 17.4973 3.91821C16.168 3.91821 15.0903 4.99587 15.0903 6.32522C15.0903 7.65457 16.168 8.73222 17.4973 8.73222Z" fill="white"/>
<path d="M17.4974 12.647C16.3732 12.6457 15.2834 13.0345 14.4138 13.747C13.5443 14.4596 12.949 15.4517 12.7293 16.5542C12.5097 17.6568 12.6794 18.8013 13.2095 19.7927C13.7395 20.7841 14.5971 21.5608 15.636 21.9904C16.6748 22.42 17.8306 22.4759 18.906 22.1485C19.9815 21.8211 20.91 21.1307 21.5332 20.1951C22.1565 19.2595 22.4358 18.1366 22.3235 17.0181C22.2113 15.8995 21.7144 14.8545 20.9177 14.0614C20.4684 13.6126 19.9351 13.2567 19.3482 13.014C18.7613 12.7713 18.1324 12.6466 17.4974 12.647ZM19.2704 19.2859L19.4261 20.2007L17.4974 19.1609L15.5687 20.2007L15.7299 19.2492L15.9326 18.0536L14.3729 16.5304L16.2443 16.2599L16.5304 16.2184L17.4974 14.2638L18.4591 16.1977L18.7408 16.2384L20.6166 16.5096L19.057 18.0328L19.2704 19.2859Z" fill="white"/>
<path d="M24.4331 8.22755L24.3755 8.18551C23.6364 7.64621 22.837 7.19494 21.9934 6.84082C21.9597 7.13323 21.8975 7.42163 21.8076 7.70192C22.5021 8.00608 23.163 8.38179 23.7797 8.82296C23.9777 8.60386 24.1966 8.40446 24.4331 8.22755Z" fill="white"/>
<path d="M11.1726 8.76162C11.7949 8.32655 12.4604 7.95691 13.1587 7.65859C13.0724 7.37651 13.0139 7.08667 12.9842 6.79321L12.9449 6.80945C12.0807 7.16688 11.2616 7.62514 10.5049 8.1747C10.7461 8.348 10.9698 8.54458 11.1726 8.76162Z" fill="white"/>
<path d="M29.0748 19.04L29.0894 18.8988C29.1865 17.961 29.1702 17.015 29.0409 16.0811L29.0264 15.9763C28.7585 16.0996 28.4792 16.1962 28.1924 16.2647C28.301 17.0855 28.3154 17.9159 28.2355 18.7399C28.5245 18.8119 28.8057 18.9124 29.0748 19.04Z" fill="white"/>
<path d="M5.96461 15.9761L5.94962 16.0771C5.81142 17.0099 5.78602 17.9559 5.87397 18.8947L5.88901 19.0541C6.15827 18.9239 6.43991 18.8209 6.72972 18.7469C6.65715 17.9194 6.6797 17.0863 6.79694 16.2639C6.51071 16.1956 6.23192 16.0991 5.96461 15.9761Z" fill="white"/>
<path d="M23.7643 26.1541C23.1529 26.5986 22.4962 26.9772 21.8052 27.2836C21.8958 27.5642 21.9587 27.853 21.9929 28.1459L22.0025 28.1418C22.8586 27.777 23.6676 27.3102 24.4119 26.7516C24.1774 26.5737 23.9605 26.3736 23.7643 26.1541Z" fill="white"/>
<path d="M10.5728 26.7701C11.2719 27.3083 12.029 27.7667 12.83 28.1366L12.9836 28.2074C13.0136 27.9118 13.0726 27.62 13.1599 27.336C12.476 27.018 11.8267 26.6303 11.2223 26.179C11.0254 26.3965 10.8079 26.5945 10.5728 26.7701Z" fill="white"/>
<path d="M7.8537 15.8061H7.85917C8.9061 15.8045 9.90971 15.3879 10.65 14.6476C11.3903 13.9074 11.8069 12.9037 11.8084 11.8568C11.8084 11.7815 11.8058 11.7068 11.8017 11.6326C11.7481 10.6638 11.3391 9.74878 10.653 9.06269C9.96693 8.37661 9.05191 7.96764 8.08311 7.91408C8.00894 7.90998 7.93443 7.90781 7.85906 7.90747C6.81209 7.90744 5.80795 8.32315 5.06737 9.06321C4.32679 9.80327 3.91038 10.8071 3.90967 11.8541C3.90896 12.9011 4.32401 13.9055 5.06359 14.6465C5.80316 15.3876 6.80674 15.8047 7.8537 15.8061V15.8061ZM7.85422 8.81904H7.85974C8.66498 8.81913 9.43725 9.13892 10.0068 9.70814C10.5764 10.2774 10.8966 11.0494 10.8972 11.8547C10.8978 12.6599 10.5786 13.4324 10.0098 14.0025C9.44107 14.5725 8.66926 14.8934 7.86401 14.8946H7.85906C7.05377 14.8947 6.2814 14.575 5.71173 14.0058C5.14205 13.4366 4.82169 12.6645 4.82104 11.8592C4.8204 11.0539 5.13954 10.2813 5.70831 9.71127C6.27707 9.14118 7.04893 8.82026 7.85422 8.81904Z" fill="white"/>
<path d="M7.85894 14.6028L7.85889 14.8945L7.86088 14.6028L7.85894 14.6028Z" fill="white"/>
<path d="M11.8018 23.3621C11.8058 23.2896 11.8083 23.2168 11.8084 23.1434V23.138C11.8069 22.0919 11.3911 21.0891 10.652 20.349C9.91285 19.6088 8.91059 19.1916 7.86459 19.1887H7.85878C6.81184 19.1888 5.80776 19.6045 5.06723 20.3446C4.32671 21.0846 3.91035 22.0885 3.90967 23.1354C3.90899 24.1823 4.32405 25.1867 5.06361 25.9277C5.80317 26.6688 6.80671 27.0858 7.85365 27.0872H7.85878C7.9342 27.0872 8.00905 27.0846 8.08339 27.0805C9.05215 27.0269 9.96711 26.6179 10.6532 25.9318C11.3392 25.2458 11.7482 24.3308 11.8018 23.3621ZM8.70768 26.0547C8.43353 26.1345 8.14952 26.1752 7.86402 26.1757H7.85878C7.05351 26.1757 6.2812 25.856 5.71158 25.2868C5.14197 24.7176 4.82166 23.9455 4.82105 23.1402C4.82045 22.335 5.1396 21.5624 5.70836 20.9924C6.27712 20.4223 7.04895 20.1014 7.85422 20.1002H7.85917C8.59058 20.1002 9.29744 20.3641 9.8499 20.8434C10.4024 21.3227 10.7633 21.9853 10.8665 22.7094C10.9697 23.4335 10.8082 24.1705 10.4116 24.785C10.015 25.3996 9.40998 25.8504 8.70768 26.0547Z" fill="white"/>
<path d="M7.85889 25.8841V26.1758L7.86105 25.884L7.85889 25.8841Z" fill="white"/>
<path d="M17.4922 31.4156V31.7073L17.4947 31.4155L17.4922 31.4156Z" fill="white"/>
<path d="M17.4979 24.7253C16.9791 24.7244 16.4652 24.8257 15.9856 25.0234C15.506 25.2211 15.0701 25.5114 14.7026 25.8776C14.3352 26.2439 14.0436 26.6789 13.8444 27.1579C13.6451 27.6369 13.5422 28.1504 13.5415 28.6692C13.5408 29.1879 13.6423 29.7018 13.8402 30.1813C14.0381 30.6608 14.3286 31.0966 14.695 31.4639C15.0614 31.8311 15.4966 32.1226 15.9756 32.3216C16.4547 32.5206 16.9683 32.6233 17.4871 32.6238H17.4928C18.5397 32.6238 19.5438 32.208 20.2843 31.4679C21.0248 30.7279 21.4412 29.724 21.4419 28.6771C21.4425 27.6302 21.0275 26.6258 20.2879 25.8848C19.5483 25.1438 18.5448 24.7267 17.4979 24.7253H17.4979ZM20.5303 28.6746C20.5294 29.4787 20.2095 30.2495 19.6409 30.8181C19.0723 31.3866 18.3014 31.7064 17.4974 31.7072H17.4924C16.6871 31.7073 15.9147 31.3876 15.345 30.8184C14.7754 30.2492 14.455 29.4771 14.4543 28.6718C14.4537 27.8665 14.7728 27.0939 15.3416 26.5238C15.9104 25.9537 16.6823 25.6328 17.4876 25.6316H17.4925C18.297 25.6325 19.0683 25.9522 19.6377 26.5206C20.207 27.0889 20.528 27.8597 20.5303 28.6642L20.5303 28.6746Z" fill="white"/>
<path d="M27.1467 19.1887H27.1408C26.0944 19.1888 25.0909 19.6042 24.3505 20.3436C23.6101 21.083 23.1934 22.0861 23.1919 23.1325C23.1918 23.2147 23.1949 23.3008 23.2018 23.4034C23.2677 24.3561 23.676 25.2528 24.3513 25.928C25.0265 26.6033 25.9232 27.0115 26.8758 27.0775C26.9764 27.0842 27.0608 27.085 27.1415 27.0872C28.1885 27.0872 29.1925 26.6714 29.9331 25.9313C30.6736 25.1913 31.09 24.1875 31.0906 23.1405C31.0913 22.0936 30.6763 21.0892 29.9367 20.3482C29.1971 19.6072 28.1936 19.1901 27.1467 19.1887H27.1467ZM30.179 23.138C30.1778 23.9424 29.8581 24.7137 29.2897 25.283C28.7213 25.8523 27.9505 26.1733 27.1461 26.1757H27.1361C26.3313 26.1744 25.5599 25.8537 24.9913 25.2842C24.4227 24.7146 24.1034 23.9427 24.1034 23.1379C24.1034 22.3331 24.4228 21.5612 24.9914 20.9916C25.5601 20.4221 26.3315 20.1015 27.1363 20.1002H27.1412C27.9457 20.1011 28.717 20.4208 29.2864 20.9891C29.8557 21.5575 30.1767 22.3282 30.179 23.1327V23.138Z" fill="white"/>
<path d="M23.2017 11.5915C23.1951 11.6903 23.192 11.7729 23.1919 11.8514C23.1912 12.37 23.2926 12.8837 23.4904 13.3631C23.6882 13.8425 23.9785 14.2783 24.3448 14.6455C24.711 15.0128 25.146 15.3043 25.6248 15.5034C26.1037 15.7025 26.6171 15.8054 27.1358 15.8061H27.1412C28.1882 15.8061 29.1924 15.3904 29.933 14.6503C30.6736 13.9103 31.09 12.9064 31.0907 11.8595C31.0914 10.8125 30.6764 9.80807 29.9368 9.06701C29.1972 8.32594 28.1936 7.90886 27.1467 7.90747H27.1466C27.0657 7.90872 26.9795 7.91055 26.8757 7.91739C25.9231 7.98333 25.0264 8.39159 24.3511 9.06685C23.6759 9.74211 23.2676 10.6388 23.2017 11.5915ZM26.2444 8.95382C26.5333 8.86474 26.834 8.81931 27.1363 8.81904H27.1415C27.9463 8.8191 28.7181 9.13846 29.2876 9.70702C29.857 10.2756 30.1777 11.0469 30.179 11.8516V11.8568C30.1778 12.6613 29.8581 13.4325 29.2897 14.0018C28.7213 14.5711 27.9506 14.8921 27.1461 14.8946H27.1411C26.4138 14.8947 25.7107 14.6339 25.1594 14.1597C24.6081 13.6854 24.2452 13.0291 24.1367 12.31C24.0281 11.5909 24.1812 10.8568 24.5679 10.2409C24.9547 9.62504 25.5496 9.16836 26.2444 8.95383L26.2444 8.95382Z" fill="white"/>
<path d="M27.1411 14.6028V14.8945L27.1432 14.6028L27.1411 14.6028Z" fill="white"/>
<path d="M17.487 10.2746H17.4925C18.5394 10.2746 19.5436 9.85888 20.2842 9.11882C21.0247 8.37876 21.4412 7.37491 21.4419 6.32794C21.4426 5.28097 21.0275 4.27656 20.2879 3.5355C19.5484 2.79444 18.5448 2.37737 17.4978 2.37598H17.4924C16.4454 2.37595 15.4413 2.79166 14.7007 3.53172C13.9601 4.27178 13.5437 5.27562 13.543 6.32259C13.5423 7.36956 13.9573 8.37397 14.6969 9.11504C15.4365 9.8561 16.44 10.2732 17.487 10.2746ZM15.3409 4.17554C15.6218 3.8921 15.9562 3.66721 16.3247 3.51389C16.6932 3.36057 17.0884 3.28185 17.4875 3.28231H17.4927C18.298 3.28231 19.0703 3.60204 19.6399 4.17123C20.2095 4.74043 20.5299 5.51251 20.5305 6.31778C20.5311 7.12305 20.2119 7.89561 19.6432 8.46567C19.0744 9.03573 18.3026 9.35664 17.4973 9.35786H17.4924C16.892 9.35786 16.305 9.17995 15.8057 8.84659C15.3063 8.51323 14.917 8.03937 14.6868 7.48486C14.4565 6.93036 14.3958 6.32006 14.5122 5.73106C14.6287 5.14206 14.917 4.60076 15.3409 4.17554Z" fill="white"/>
<path d="M17.4922 9.06622V9.35789L17.4942 9.06616L17.4922 9.06622Z" fill="white"/>
</svg>
