<svg width="28" height="28" viewBox="0 0 28 28" fill="none" xmlns="http://www.w3.org/2000/svg">
<path d="M14.003 6.99634C10.1721 6.99634 7.0821 10.0489 7.0821 13.8333C7.0821 17.6178 10.1721 20.6703 14.003 20.6703C17.8339 20.6703 20.9239 17.6178 20.9239 13.8333C20.9239 10.0489 17.8339 6.99634 14.003 6.99634ZM14.003 18.2783C11.5274 18.2783 9.50351 16.2849 9.50351 13.8333C9.50351 11.3818 11.5214 9.38839 14.003 9.38839C16.4847 9.38839 18.5025 11.3818 18.5025 13.8333C18.5025 16.2849 16.4786 18.2783 14.003 18.2783ZM22.8213 6.71667C22.8213 7.60328 22.0985 8.31137 21.207 8.31137C20.3095 8.31137 19.5928 7.59733 19.5928 6.71667C19.5928 5.83601 20.3156 5.12196 21.207 5.12196C22.0985 5.12196 22.8213 5.83601 22.8213 6.71667ZM27.4051 8.33518C27.3027 6.19899 26.8088 4.30676 25.2247 2.74776C23.6465 1.18876 21.7311 0.700826 19.5687 0.593719C17.34 0.46876 10.66 0.46876 8.43134 0.593719C6.27496 0.694875 4.35951 1.18281 2.77535 2.74181C1.19119 4.30081 0.703291 6.19303 0.594869 8.32922C0.468377 10.5309 0.468377 17.1298 0.594869 19.3315C0.697267 21.4677 1.19119 23.3599 2.77535 24.9189C4.35951 26.4779 6.26893 26.9658 8.43134 27.0729C10.66 27.1979 17.34 27.1979 19.5687 27.0729C21.7311 26.9718 23.6465 26.4839 25.2247 24.9189C26.8028 23.3599 27.2967 21.4677 27.4051 19.3315C27.5316 17.1298 27.5316 10.5368 27.4051 8.33518ZM24.5259 21.6938C24.0561 22.8601 23.1466 23.7586 21.96 24.2287C20.183 24.9249 15.9666 24.7642 14.003 24.7642C12.0394 24.7642 7.81695 24.9189 6.04607 24.2287C4.86548 23.7645 3.95594 22.866 3.48009 21.6938C2.77535 19.9384 2.93798 15.7732 2.93798 13.8333C2.93798 11.8935 2.78137 7.72228 3.48009 5.97287C3.94992 4.80659 4.85945 3.90809 6.04607 3.438C7.82298 2.74181 12.0394 2.90247 14.003 2.90247C15.9666 2.90247 20.1891 2.74776 21.96 3.438C23.1405 3.90213 24.0501 4.80064 24.5259 5.97287C25.2307 7.72824 25.068 11.8935 25.068 13.8333C25.068 15.7732 25.2307 19.9444 24.5259 21.6938Z" fill="#FAFAFA"/>
</svg>
