<svg width="50" height="50" viewBox="0 0 50 50" fill="none" xmlns="http://www.w3.org/2000/svg">
<rect x="0.5" y="0.5" width="49" height="49" rx="14.5" stroke="white"/>
<path d="M15.6245 20.0487C16.2969 18.6474 17.247 17.4631 18.4444 16.4783C20.0669 15.1378 21.9281 14.3308 24.0148 14.0835C26.4659 13.7929 28.7696 14.2571 30.8997 15.5325C31.429 15.8492 31.9235 16.2093 32.3964 16.5998C32.5135 16.6952 32.5005 16.7516 32.4008 16.847C31.4333 17.8102 30.4659 18.7733 29.5071 19.745C29.3943 19.8578 29.3336 19.8492 29.2121 19.7581C26.4009 17.5932 22.3012 18.1789 20.2058 21.0422C19.837 21.5454 19.5377 22.0877 19.3294 22.6777C19.3121 22.7298 19.2774 22.7775 19.2513 22.8296C18.6917 22.4044 18.1277 21.9793 17.5724 21.5498C16.9217 21.0509 16.2709 20.552 15.6245 20.0487Z" fill="white"/>
<path d="M19.2513 26.8989C19.4378 27.3111 19.594 27.7406 19.8283 28.1267C20.8131 29.7405 22.2187 30.7774 24.0711 31.1461C25.7414 31.4802 27.3466 31.2546 28.8433 30.4173C28.8953 30.3913 28.9474 30.3652 28.9951 30.3392C29.0212 30.3652 29.0428 30.3956 29.0689 30.4173C30.1882 31.285 31.3118 32.1526 32.4311 33.0203C31.8931 33.5539 31.2814 33.9834 30.6307 34.3565C28.7435 35.4324 26.7002 35.8662 24.5484 35.7014C21.8673 35.4931 19.555 34.4346 17.6461 32.5257C16.8088 31.6884 16.119 30.7427 15.6201 29.6624C16.0843 29.3067 16.5485 28.9553 17.0127 28.5995C17.7589 28.0312 18.5051 27.4672 19.2513 26.8989Z" fill="white"/>
<path d="M32.4355 33.0204C31.3162 32.1527 30.1926 31.285 29.0733 30.4174C29.0473 30.3957 29.0213 30.3653 28.9996 30.3393C29.3857 30.0399 29.7805 29.7493 30.0972 29.3675C30.6264 28.7341 30.9778 28.0183 31.16 27.2157C31.1817 27.1159 31.1644 27.0812 31.0646 27.0855C31.0125 27.0899 30.9648 27.0855 30.9128 27.0855C29.1427 27.0855 27.3684 27.0812 25.5983 27.0899C25.4031 27.0899 25.3597 27.0378 25.3641 26.8513C25.3727 25.5932 25.3727 24.3351 25.3641 23.0769C25.3641 22.9164 25.4074 22.873 25.568 22.873C28.813 22.8774 32.0581 22.8774 35.3075 22.873C35.4463 22.873 35.5027 22.9078 35.5374 23.0553C35.802 24.2483 35.7847 25.4457 35.6242 26.6517C35.494 27.6148 35.2597 28.5476 34.8997 29.4499C34.366 30.7818 33.5808 31.9445 32.5483 32.9423C32.5093 32.9726 32.4702 32.9943 32.4355 33.0204Z" fill="white"/>
<path d="M19.2514 26.899C18.5052 27.4673 17.7591 28.0313 17.0129 28.5996C16.5487 28.951 16.0845 29.3067 15.6203 29.6625C15.2602 28.9944 15.0259 28.2872 14.835 27.5584C14.4706 26.1484 14.4142 24.7168 14.6138 23.2808C14.77 22.1528 15.0953 21.0683 15.6203 20.0531C16.271 20.552 16.9174 21.0553 17.5682 21.5542C18.1278 21.9836 18.6875 22.4088 19.2471 22.834C19.1516 23.2982 19.0172 23.7537 18.9738 24.2309C18.8957 25.0986 18.9781 25.9445 19.2254 26.7775C19.2428 26.8122 19.2471 26.8556 19.2514 26.899Z" fill="white"/>
</svg>
