<svg width="50" height="50" viewBox="0 0 50 50" fill="none" xmlns="http://www.w3.org/2000/svg">
<rect x="0.5" y="0.5" width="49" height="49" rx="14.5" stroke="white"/>
<path d="M38.3505 18.1189C38.5462 17.4744 38.3505 17 37.4087 17H34.2925C33.4989 17 33.1338 17.4073 32.938 17.8611C32.938 17.8611 31.3508 21.6303 29.1075 24.0744C28.3827 24.7808 28.0494 25.0077 27.6526 25.0077C27.4568 25.0077 27.1553 24.7808 27.1553 24.1362V18.1189C27.1553 17.3455 26.933 17 26.277 17H21.3778C20.8804 17 20.5842 17.3609 20.5842 17.6961C20.5842 18.4283 21.7058 18.5984 21.8222 20.6609V25.1366C21.8222 26.1163 21.6423 26.2967 21.2455 26.2967C20.1873 26.2967 17.616 22.512 16.0923 18.1808C15.7855 17.3403 15.4839 17 14.685 17H11.5687C10.6799 17 10.5 17.4073 10.5 17.8611C10.5 18.6655 11.5581 22.6616 15.4257 27.9416C18.0023 31.5458 21.6317 33.5 24.9331 33.5C26.9172 33.5 27.1605 33.0669 27.1605 32.3192C27.1605 28.8748 26.9807 28.55 27.9753 28.55C28.4356 28.55 29.2292 28.7769 31.081 30.5145C33.1973 32.577 33.5465 33.5 34.7316 33.5H37.8478C38.7367 33.5 39.1864 33.0669 38.9272 32.2109C38.3346 30.4114 34.3295 26.7092 34.1496 26.4617C33.6893 25.8842 33.8216 25.6264 34.1496 25.1108C34.1549 25.1056 37.959 19.8875 38.3505 18.1189Z" fill="#FAFAFA"/>
</svg>
