<svg width="50" height="50" viewBox="0 0 50 50" fill="none" xmlns="http://www.w3.org/2000/svg">
<rect x="0.5" y="0.5" width="49" height="49" rx="14.5" stroke="white"/>
<path d="M28.1051 24.45C28.1051 25.121 27.6166 25.671 26.9977 25.671C26.3897 25.671 25.8903 25.121 25.8903 24.45C25.8903 23.779 26.3789 23.229 26.9977 23.229C27.6166 23.229 28.1051 23.779 28.1051 24.45ZM23.0349 23.229C22.416 23.229 21.9274 23.779 21.9274 24.45C21.9274 25.121 22.4269 25.671 23.0349 25.671C23.6537 25.671 24.1423 25.121 24.1423 24.45C24.1531 23.779 23.6537 23.229 23.0349 23.229ZM34.5 16.266V36C31.7648 33.551 32.6395 34.3617 29.4623 31.369L30.0377 33.404H17.7257C16.4989 33.404 15.5 32.392 15.5 31.138V16.266C15.5 15.012 16.4989 14 17.7257 14H32.2743C33.5011 14 34.5 15.012 34.5 16.266ZM31.4057 26.694C31.4057 23.152 29.8423 20.281 29.8423 20.281C28.2789 19.093 26.7914 19.126 26.7914 19.126L26.6394 19.302C28.4851 19.874 29.3429 20.699 29.3429 20.699C26.7638 19.2669 23.7343 19.2666 21.2326 20.38C20.8309 20.567 20.592 20.699 20.592 20.699C20.592 20.699 21.4931 19.83 23.4474 19.258L23.3389 19.126C23.3389 19.126 21.8514 19.093 20.288 20.281C20.288 20.281 18.7246 23.152 18.7246 26.694C18.7246 26.694 19.6366 28.289 22.036 28.366C22.036 28.366 22.4377 27.871 22.7634 27.453C21.3846 27.035 20.8634 26.155 20.8634 26.155C21.0231 26.2683 21.2865 26.4151 21.3086 26.43C23.1411 27.4698 25.7442 27.8104 28.0834 26.815C28.4634 26.672 28.8869 26.463 29.332 26.166C29.332 26.166 28.7891 27.068 27.3669 27.475C27.6926 27.893 28.0834 28.366 28.0834 28.366C30.4829 28.289 31.4057 26.694 31.4057 26.694Z" fill="#FAFAFA"/>
</svg>
