<svg width="50" height="48" viewBox="0 0 50 48" fill="none" xmlns="http://www.w3.org/2000/svg">
<g clip-path="url(#clip0_78_2094)">
<path d="M25 1.59976C29.4709 1.59976 33.8415 2.91351 37.5589 5.37485C41.2764 7.8362 44.1738 11.3346 45.8847 15.4277C47.5957 19.5207 48.0434 24.0246 47.1711 28.3698C46.2989 32.715 44.1459 36.7063 40.9845 39.839C36.7452 44.0398 30.9954 46.3998 25 46.3998C19.0047 46.3998 13.2548 44.0398 9.01548 39.839C4.77612 35.6382 2.39447 29.9407 2.39446 23.9998C2.39445 18.059 4.77609 12.3614 9.01544 8.16062C11.1097 6.07404 13.6008 4.4198 16.3445 3.29362C19.0883 2.16745 22.0302 1.59172 25 1.59976ZM25 -0.000244141C20.2097 -0.000244141 15.527 1.40733 11.544 4.04449C7.56098 6.68164 4.45662 10.4299 2.62345 14.8154C0.790279 19.2008 0.310639 24.0264 1.24518 28.6819C2.17972 33.3375 4.48647 37.6139 7.87372 40.9703C11.261 44.3268 15.5766 46.6126 20.2749 47.5386C24.9731 48.4647 29.843 47.9894 34.2686 46.1729C38.6943 44.3564 42.477 41.2802 45.1383 37.3334C47.7997 33.3867 49.2202 28.7465 49.2202 23.9998C49.2201 17.6346 46.6684 11.5301 42.1262 7.0292C37.5841 2.52833 31.4236 -0.000234381 25 -0.000244141Z" fill="white" fill-opacity="0.5"/>
<path d="M33.4816 11.8728C33.3856 11.4889 33.274 11.1087 33.1406 10.6187C33.0207 10.8292 32.949 10.931 32.901 11.0426C31.908 13.3537 30.917 15.6659 29.9278 17.979C28.5622 21.1654 27.1971 24.3524 25.8324 27.5402C25.4726 28.384 24.8588 28.9053 23.9449 29.0141C22.0904 29.2351 20.8248 27.4619 21.577 25.702C23.8924 20.2897 26.2116 14.8795 28.5347 9.47123C28.6136 9.28584 28.6937 9.0999 28.7825 8.89311C28.6716 8.88115 28.6346 8.86529 28.6113 8.87678C28.4805 8.93912 28.3492 9.00311 28.2239 9.07639C26.0449 10.3572 23.7295 11.2225 21.1791 11.374C20.7563 11.3991 20.6211 11.654 20.5532 12.0358C20.0278 14.9994 19.5427 17.9719 18.9371 20.9192C17.9856 25.5565 16.4965 30.0352 14.6691 34.4028C14.6074 34.5216 14.5802 34.6551 14.5905 34.7883C14.6007 34.9215 14.648 35.0493 14.7271 35.1576C16.6218 38.1333 20.3358 39.698 23.782 38.9351C23.8908 38.9027 23.9918 38.8487 24.0789 38.7764C24.166 38.7041 24.2374 38.615 24.2887 38.5145C26.0708 34.48 28.1042 30.5739 30.5862 26.9233C32.4611 24.1641 34.4812 21.5012 36.4576 18.8109C36.7568 18.404 36.7281 18.1169 36.4228 17.7477C35.009 16.0335 34.0037 14.0254 33.4816 11.8728Z" fill="white" fill-opacity="0.5"/>
<path d="M18.3515 16.9803C16.9032 20.3607 15.4548 23.7416 14.0061 27.1228C13.4628 28.371 13.2422 29.7339 13.3643 31.0879C13.4255 31.7945 13.606 32.4906 13.7335 33.1913C13.7942 33.1896 13.8555 33.188 13.9162 33.1863C16.1075 27.8562 17.6587 22.2892 18.538 16.6001C18.4757 16.7265 18.4072 16.8506 18.3515 16.9803Z" fill="white" fill-opacity="0.5"/>
<path d="M25.8722 38.2337C25.9327 38.2106 25.9917 38.184 26.0488 38.1538C27.8685 37.2515 29.3007 35.7316 30.0846 33.8709C30.9478 31.872 31.8059 29.8704 32.6588 27.8664C33.2935 26.3849 33.9284 24.9034 34.5635 23.4221C31.0184 27.9877 28.0441 32.9618 25.7056 38.2359C25.761 38.2411 25.8169 38.2404 25.8722 38.2337Z" fill="white" fill-opacity="0.5"/>
<path d="M28.9151 14.4966C28.2573 14.2112 27.6595 14.4747 27.3273 15.23C26.7317 16.5847 26.1465 17.944 25.5715 19.3078C25.5048 19.4504 25.4676 19.6047 25.4621 19.7618C25.4567 19.9188 25.483 20.0753 25.5397 20.2221C25.5963 20.3689 25.6821 20.5029 25.792 20.6162C25.9018 20.7295 26.0335 20.8199 26.1792 20.8819C26.3219 20.9395 26.4747 20.9685 26.6288 20.9674C26.783 20.9662 26.9353 20.9349 27.0772 20.8752C27.219 20.8154 27.3475 20.7285 27.4553 20.6194C27.5631 20.5102 27.6481 20.381 27.7053 20.2392C28.0155 19.5495 28.3036 18.8506 28.6017 18.1555C28.6002 18.1548 28.5987 18.1543 28.5972 18.1538C28.8826 17.4882 29.1751 16.8259 29.451 16.157C29.7695 15.3848 29.5686 14.7799 28.9151 14.4966Z" fill="white" fill-opacity="0.5"/>
<path d="M24.5907 21.5953C23.9427 23.1069 23.2965 24.619 22.6523 26.1314C22.3316 26.8877 22.5485 27.5069 23.2136 27.7847C23.8731 28.0604 24.4687 27.7765 24.7954 27.0212C25.4418 25.5271 26.0849 24.0315 26.725 22.5343C26.7736 22.4037 26.8154 22.2706 26.8503 22.1357C25.7585 22.0421 25.7249 22.0285 24.764 21.2649C24.6928 21.399 24.6337 21.4936 24.5907 21.5953Z" fill="white" fill-opacity="0.5"/>
<path d="M30.3034 14.1039C30.6511 13.2924 30.9762 12.5349 31.3085 11.7582C30.5988 11.4574 29.9226 11.1713 29.2228 10.8755C28.8866 11.6598 28.5615 12.4178 28.2139 13.2294C29.0643 13.196 29.7267 13.5133 30.3034 14.1039Z" fill="white" fill-opacity="0.5"/>
</g>
<defs>
<clipPath id="clip0_78_2094">
<rect width="48.4404" height="48" fill="white" transform="translate(0.779785)"/>
</clipPath>
</defs>
</svg>
