<svg width="48" height="48" viewBox="0 0 48 48" fill="none" xmlns="http://www.w3.org/2000/svg">
<g clip-path="url(#clip0_119_2991)">
<path d="M24.0005 1.59878C28.4308 1.59879 32.7616 2.91253 36.4453 5.37387C40.1289 7.83522 43 11.3336 44.6954 15.4267C46.3908 19.5197 46.8344 24.0236 45.9701 28.3688C45.1058 32.714 42.9724 36.7053 39.8397 39.838C35.6389 44.0388 29.9414 46.3988 24.0005 46.3988C18.0597 46.3988 12.3621 44.0388 8.16132 39.838C3.9605 35.6372 1.60049 29.9397 1.60049 23.9988C1.60048 18.058 3.96047 12.3605 8.16128 8.15964C10.2365 6.07307 12.7049 4.41882 15.4237 3.29264C18.1425 2.16647 21.0577 1.59074 24.0005 1.59878ZM24.0005 -0.0012207C19.2537 -0.0012207 14.6136 1.40635 10.6668 4.04351C6.72003 6.68066 3.64389 10.4289 1.82739 14.8144C0.0108871 19.1998 -0.464393 24.0254 0.461652 28.6809C1.3877 33.3365 3.67348 37.6129 7.02994 40.9693C10.3864 44.3258 14.6628 46.6116 19.3183 47.5376C23.9739 48.4637 28.7995 47.9884 33.1849 46.1719C37.5703 44.3554 41.3186 41.2792 43.9558 37.3325C46.5929 33.3857 48.0005 28.7455 48.0005 23.9988C48.0005 17.6336 45.4719 11.5291 40.971 7.02823C36.4702 2.52736 30.3657 -0.00121094 24.0005 -0.0012207Z" fill="#F04451"/>
<path d="M33.9225 29.7983C33.8938 28.8822 33.7667 27.9718 33.5434 27.0829C33.2123 25.7773 32.5785 24.568 31.6932 23.5528L31.478 23.3017C31.4017 23.2198 31.3402 23.1327 31.2634 23.0558C30.5133 22.2818 29.6576 21.6178 28.7217 21.0832L27.0569 21.6181L26.0145 21.9529L24.9459 22.2963C24.8968 22.3121 24.8469 22.3248 24.797 22.3378C25.1681 22.3542 25.3948 22.6506 25.2076 22.8914L24.701 23.543C24.6736 23.5762 24.654 23.6152 24.6436 23.657C24.6332 23.6988 24.6323 23.7424 24.6409 23.7846L26.8159 33.8186L26.0212 34.2557L24.5029 35.0909L23.8899 35.428L23.2769 35.0909L21.7585 34.2557L20.9639 33.8186L23.1387 23.7846C23.1474 23.7424 23.1465 23.6988 23.1361 23.657C23.1257 23.6152 23.1061 23.5763 23.0787 23.543L22.5722 22.8914C22.3796 22.6436 22.6245 22.3362 23.0145 22.3362H23.1783C23.1201 22.3209 23.0619 22.3049 23.0045 22.2857L21.9818 21.9432L20.989 21.6107L19.3868 21.074C19.3669 21.0666 19.3475 21.0579 19.3287 21.0479C15.9405 22.9517 14.1573 25.8714 14.0583 29.8444C14.0173 31.5762 14.0583 33.3079 14.0583 35.0447C14.0583 35.8184 14.3811 36.1565 15.1496 36.1565H32.8517C33.6202 36.1565 33.943 35.8184 33.943 35.0447C33.9532 33.2925 33.9839 31.5454 33.9225 29.7983Z" fill="#F04451"/>
<path d="M17.7375 16.0264C17.7349 16.0537 17.7349 16.0811 17.7375 16.1084C17.7928 16.6336 17.9131 17.1499 18.0956 17.6454C18.2288 17.9837 18.3918 18.3095 18.5828 18.6189C18.937 19.2486 19.4084 19.8048 19.9715 20.2575L22.6298 21.1478L23.3094 21.3753C23.4925 21.4368 23.6844 21.4681 23.8775 21.468H24.1051C24.2908 21.4681 24.4754 21.4391 24.6522 21.3822L25.3901 21.1452L27.9361 20.3273C28.8113 19.6558 29.4767 18.7485 29.8544 17.7121C29.8544 17.7121 30.0051 17.2049 30.0644 16.9947C30.4273 15.8217 30.4219 14.5657 30.049 13.3958C29.676 12.226 28.9535 11.1986 27.9787 10.4521C26.8899 9.54497 25.5263 9.03303 24.1096 8.99956C22.6929 8.96608 21.3066 9.41304 20.1762 10.2677C19.2407 10.9557 18.528 11.9036 18.1268 12.9934C17.9183 13.4835 17.782 14.0012 17.7221 14.5304V14.5714C17.691 14.8434 17.6825 15.1176 17.6965 15.3911C17.6973 15.6035 17.711 15.8157 17.7375 16.0264Z" fill="#F04451"/>
</g>
<defs>
<clipPath id="clip0_119_2991">
<rect width="48" height="48" fill="white"/>
</clipPath>
</defs>
</svg>
