<svg width="15" height="21" viewBox="0 0 15 21" fill="none" xmlns="http://www.w3.org/2000/svg">
<path d="M14.7393 15.7281C14.7184 15.06 14.6257 14.3963 14.4628 13.7481C14.2214 12.7961 13.7593 11.9142 13.1138 11.1741L12.9569 10.9909C12.9012 10.9312 12.8564 10.8677 12.8003 10.8116C12.1624 10.1529 11.4202 9.60389 10.6037 9.18657L10.1779 8.98112C10.2035 8.98112 10.2227 8.94005 10.2451 8.92127C10.9465 8.42357 11.4795 7.72369 11.7731 6.91519C11.7731 6.91519 11.8828 6.54535 11.9262 6.39217C12.1908 5.53681 12.1869 4.62094 11.9149 3.76793C11.643 2.91492 11.1161 2.16578 10.4053 1.62144C9.61145 0.960007 8.6171 0.586721 7.58402 0.562314C6.55105 0.537896 5.54025 0.863804 4.716 1.48699C4.03385 1.98869 3.5141 2.67983 3.22162 3.47448C3.0696 3.83184 2.9702 4.20935 2.92645 4.59524V4.62508C2.90382 4.82348 2.89763 5.0234 2.90778 5.22283C2.90848 5.37771 2.9184 5.53241 2.93777 5.6861C2.9359 5.70594 2.9359 5.726 2.93777 5.74584C2.97813 6.12874 3.06575 6.50522 3.19887 6.86654C3.29593 7.11329 3.41482 7.35082 3.55412 7.57645C3.84252 8.0899 4.23743 8.53569 4.71227 8.88394C4.74773 8.91847 4.78518 8.9509 4.82438 8.98112L4.3947 9.18657C1.73097 10.5688 0.330069 12.7506 0.254994 15.7617C0.225081 17.0245 0.254994 18.2872 0.254994 19.5536C0.254994 20.1178 0.490345 20.3643 1.05072 20.3643H13.9586C14.5189 20.3643 14.7542 20.1178 14.7542 19.5536C14.7617 18.276 14.7841 17.002 14.7393 15.7281Z" fill="white"/>
</svg>
