<svg width="48" height="48" viewBox="0 0 48 48" fill="none" xmlns="http://www.w3.org/2000/svg">
<g clip-path="url(#clip0_119_2994)">
<path d="M23.9995 1.59878C28.4298 1.59879 32.7606 2.91253 36.4443 5.37388C40.128 7.83522 42.999 11.3336 44.6944 15.4267C46.3898 19.5198 46.8334 24.0236 45.9691 28.3688C45.1048 32.714 42.9714 36.7053 39.8387 39.838C35.6379 44.0388 29.9404 46.3988 23.9995 46.3988C18.0587 46.3988 12.3612 44.0388 8.16034 39.838C3.95952 35.6372 1.59952 29.9397 1.59951 23.9988C1.5995 18.058 3.95949 12.3605 8.1603 8.15964C10.2355 6.07307 12.7039 4.41882 15.4227 3.29265C18.1415 2.16647 21.0567 1.59074 23.9995 1.59878ZM23.9995 -0.0012207C19.2528 -0.0012207 14.6126 1.40635 10.6658 4.04351C6.71906 6.68066 3.64292 10.429 1.82641 14.8144C0.00991058 19.1998 -0.46537 24.0254 0.460676 28.6809C1.38672 33.3365 3.6725 37.6129 7.02896 40.9693C10.3854 44.3258 14.6618 46.6116 19.3174 47.5376C23.9729 48.4637 28.7985 47.9884 33.1839 46.1719C37.5694 44.3554 41.3176 41.2792 43.9548 37.3325C46.5919 33.3857 47.9995 28.7455 47.9995 23.9988C47.9995 17.6336 45.4709 11.5291 40.9701 7.02823C36.4692 2.52736 30.3647 -0.00121094 23.9995 -0.0012207Z" fill="#F04451"/>
<path d="M30.5303 34.8991H26.2256V15.7366L35.8742 13.4021C36.137 13.3385 36.3638 13.1731 36.5047 12.9423C36.6456 12.7115 36.689 12.4342 36.6254 12.1714C36.5618 11.9086 36.3964 11.6818 36.1656 11.5409C35.9348 11.4 35.6575 11.3566 35.3947 11.4202L26.0891 13.6718C25.9324 13.2402 25.6468 12.8673 25.2711 12.6035C24.8953 12.3397 24.4476 12.1977 23.9885 12.1969H23.9884C23.3952 12.1976 22.8265 12.4335 22.4071 12.8529C21.9877 13.2723 21.7518 13.841 21.7511 14.4342V14.7214L12.1025 17.0559C11.9722 17.0872 11.8494 17.1439 11.741 17.2228C11.6326 17.3016 11.5409 17.4011 11.471 17.5154C11.4011 17.6297 11.3544 17.7567 11.3336 17.8891C11.3128 18.0215 11.3184 18.1567 11.3499 18.287C11.3814 18.4172 11.4383 18.54 11.5173 18.6482C11.5963 18.7565 11.6959 18.8481 11.8103 18.9178C11.9247 18.9876 12.0518 19.034 12.1842 19.0546C12.3167 19.0752 12.4518 19.0695 12.582 19.0378L21.7511 16.8193V34.8991H17.4464C17.176 34.8991 16.9167 35.0065 16.7255 35.1977C16.5343 35.3889 16.4269 35.6482 16.4269 35.9186C16.4269 36.189 16.5343 36.4484 16.7255 36.6396C16.9167 36.8308 17.176 36.9382 17.4464 36.9382H30.5303C30.8007 36.9382 31.06 36.8308 31.2512 36.6396C31.4424 36.4484 31.5499 36.189 31.5499 35.9186C31.5499 35.6482 31.4424 35.3889 31.2512 35.1977C31.06 35.0065 30.8007 34.8991 30.5303 34.8991L30.5303 34.8991Z" fill="#F04451"/>
<path d="M18.9286 24.6173C18.9665 24.4646 18.9691 24.3052 18.9363 24.1513C18.9036 23.9973 18.8362 23.8529 18.7394 23.7288C18.6426 23.6048 18.5188 23.5043 18.3775 23.4351C18.2361 23.3659 18.0809 23.3297 17.9235 23.3293H9.36564C9.20827 23.3298 9.05305 23.3659 8.91171 23.4351C8.77038 23.5043 8.64662 23.6048 8.54981 23.7288C8.45299 23.8529 8.38565 23.9974 8.35286 24.1513C8.32007 24.3052 8.32271 24.4646 8.36056 24.6173C8.64939 25.8008 9.32718 26.8531 10.2853 27.6055C11.2434 28.3579 12.4264 28.7668 13.6446 28.7668C14.8628 28.7668 16.0458 28.3579 17.0039 27.6055C17.962 26.8531 18.6398 25.8008 18.9286 24.6173H18.9286Z" fill="#F04451"/>
<path d="M38.9938 20.0569H30.4359C30.2786 20.0573 30.1234 20.0935 29.982 20.1627C29.8407 20.2319 29.7169 20.3323 29.6201 20.4564C29.5233 20.5805 29.456 20.7249 29.4232 20.8788C29.3904 21.0327 29.393 21.1921 29.4309 21.3449C29.7197 22.5283 30.3975 23.5806 31.3556 24.333C32.3137 25.0854 33.4967 25.4944 34.7149 25.4944C35.9331 25.4944 37.1161 25.0854 38.0742 24.333C39.0323 23.5806 39.7101 22.5283 39.9989 21.3449C40.0368 21.1921 40.0394 21.0327 40.0066 20.8788C39.9738 20.7249 39.9065 20.5804 39.8097 20.4564C39.7129 20.3323 39.5891 20.2319 39.4478 20.1627C39.3064 20.0935 39.1512 20.0573 38.9938 20.0569Z" fill="#F04451"/>
</g>
<defs>
<clipPath id="clip0_119_2994">
<rect width="48" height="48" fill="white"/>
</clipPath>
</defs>
</svg>
