<svg width="48" height="48" viewBox="0 0 48 48" fill="none" xmlns="http://www.w3.org/2000/svg">
<path d="M23.9995 1.59878C28.4298 1.59879 32.7606 2.91253 36.4443 5.37388C40.128 7.83522 42.999 11.3336 44.6944 15.4267C46.3898 19.5198 46.8334 24.0236 45.9691 28.3688C45.1048 32.714 42.9714 36.7053 39.8387 39.838C35.6379 44.0388 29.9404 46.3988 23.9995 46.3988C18.0587 46.3988 12.3612 44.0388 8.16034 39.838C3.95952 35.6372 1.59952 29.9397 1.59951 23.9988C1.5995 18.058 3.95949 12.3605 8.1603 8.15964C10.2355 6.07307 12.7039 4.41882 15.4227 3.29265C18.1415 2.16647 21.0567 1.59074 23.9995 1.59878ZM23.9995 -0.0012207C19.2528 -0.0012207 14.6126 1.40635 10.6658 4.04351C6.71906 6.68066 3.64292 10.429 1.82641 14.8144C0.00991058 19.1998 -0.46537 24.0254 0.460676 28.6809C1.38672 33.3365 3.6725 37.6129 7.02896 40.9693C10.3854 44.3258 14.6618 46.6116 19.3174 47.5376C23.9729 48.4637 28.7985 47.9884 33.1839 46.1719C37.5694 44.3554 41.3176 41.2792 43.9548 37.3325C46.5919 33.3857 47.9995 28.7455 47.9995 23.9988C47.9995 17.6336 45.4709 11.5291 40.9701 7.02823C36.4692 2.52736 30.3647 -0.00121094 23.9995 -0.0012207Z" fill="#F04451"/>
</svg>
