<svg width="48" height="48" viewBox="0 0 48 48" fill="none" xmlns="http://www.w3.org/2000/svg">
<g clip-path="url(#clip0_78_2471)">
<path d="M24 1.59976C28.4303 1.59976 32.7611 2.91351 36.4448 5.37485C40.1284 7.8362 42.9995 11.3346 44.6949 15.4277C46.3903 19.5207 46.8339 24.0246 45.9696 28.3698C45.1053 32.715 42.9719 36.7063 39.8392 39.839C35.6384 44.0398 29.9409 46.3998 24 46.3998C18.0592 46.3998 12.3617 44.0398 8.16083 39.839C3.96001 35.6382 1.60001 29.9407 1.6 23.9998C1.59999 18.059 3.95998 12.3614 8.16079 8.16061C10.236 6.07404 12.7044 4.4198 15.4232 3.29362C18.142 2.16745 21.0572 1.59172 24 1.59976ZM24 -0.000244141C19.2533 -0.000244141 14.6131 1.40733 10.6663 4.04448C6.71955 6.68164 3.64341 10.4299 1.8269 14.8154C0.0103989 19.2008 -0.464881 24.0264 0.461164 28.6819C1.38721 33.3375 3.67299 37.6139 7.02945 40.9703C10.3859 44.3268 14.6623 46.6126 19.3178 47.5386C23.9734 48.4646 28.799 47.9894 33.1844 46.1729C37.5698 44.3564 41.3181 41.2802 43.9553 37.3334C46.5924 33.3867 48 28.7465 48 23.9998C48 17.6346 45.4714 11.5301 40.9706 7.0292C36.4697 2.52833 30.3652 -0.000234381 24 -0.000244141Z" fill="white" fill-opacity="0.5"/>
<path d="M28.2741 23.9459L28.2211 23.8839C28.178 23.8377 28.1432 23.7885 28.0999 23.7452C27.6061 23.2353 27.0317 22.8103 26.3997 22.4873L26.07 22.3283C26.09 22.3283 26.1047 22.2965 26.122 22.282C26.665 21.8967 27.0775 21.355 27.3047 20.7292C27.3047 20.7292 27.3897 20.443 27.4232 20.3244C27.6281 19.6624 27.625 18.9535 27.4145 18.2932C27.204 17.633 26.7962 17.0531 26.2461 16.6318C25.6316 16.1199 24.862 15.8309 24.0624 15.812C23.2629 15.7931 22.4805 16.0454 21.8425 16.5277C21.3145 16.9161 20.9123 17.451 20.6858 18.066C20.5682 18.3426 20.4913 18.6348 20.4575 18.9335V18.9566C20.4399 19.1102 20.4351 19.2649 20.443 19.4193C20.4435 19.5392 20.4512 19.6589 20.4661 19.7779C20.4647 19.7933 20.4647 19.8088 20.4661 19.8241C20.4974 20.1206 20.5653 20.4119 20.6682 20.6916C20.7434 20.8826 20.8354 21.0664 20.9432 21.241C21.1665 21.6384 21.4721 21.9835 21.8396 22.2531C21.8671 22.2797 21.896 22.3049 21.9264 22.3283L21.5939 22.4873C20.8749 22.8474 20.2315 23.3417 19.6982 23.9435C20.2038 24.0858 20.6745 24.3312 21.0806 24.6643C21.6124 25.0763 22.0201 25.627 22.2589 26.2559C22.7962 25.9946 23.3855 25.8578 23.9829 25.8557C24.0143 25.8557 24.046 25.8561 24.077 25.8568C24.6575 25.872 25.2276 26.0146 25.747 26.2745C25.7554 26.2528 25.7625 26.2307 25.7714 26.2092C26.0186 25.552 26.4509 24.9805 27.0161 24.5637C27.3935 24.2816 27.8201 24.0721 28.2741 23.9459Z" fill="white" fill-opacity="0.5"/>
<path d="M32.4323 30.9424C32.4004 30.9082 32.3748 30.8718 32.3428 30.8398C31.9778 30.4629 31.5531 30.1488 31.086 29.91L30.8424 29.7925C30.8572 29.7925 30.868 29.769 30.8808 29.7583C31.2821 29.4735 31.5871 29.0732 31.755 28.6106C31.755 28.6106 31.8179 28.399 31.8426 28.3114C31.994 27.822 31.9918 27.298 31.8362 26.81C31.6806 26.322 31.3791 25.8934 30.9725 25.582C30.5184 25.2035 29.9496 24.99 29.3586 24.976C29.3379 24.9756 29.3171 24.9753 29.2964 24.9753C28.7273 24.9801 28.1744 25.1656 27.7176 25.505C27.3274 25.7921 27.0301 26.1875 26.8627 26.6421C26.817 26.75 26.7797 26.8611 26.751 26.9746C27.2798 27.4638 27.6599 28.0922 27.8478 28.7876C28.0357 29.483 28.0237 30.2173 27.8132 30.9062C27.7993 30.955 27.7683 31.0979 27.7683 31.0979L27.7533 31.1391L27.6978 31.2921C27.6249 31.4928 27.5352 31.6869 27.4295 31.8724C27.6513 32.0464 27.8611 32.2353 28.0575 32.4376C28.111 32.492 28.1511 32.5405 28.1757 32.5701L28.1814 32.5771L28.1895 32.5858L28.2053 32.6041L28.2971 32.7114C28.7123 33.1906 29.0325 33.7444 29.2407 34.3433C30.621 33.6405 31.8476 32.6699 32.8489 31.4882C32.7514 31.333 32.6421 31.1856 32.5221 31.0472L32.4323 30.9424Z" fill="white" fill-opacity="0.5"/>
<path d="M20.3471 25.582C19.8911 25.2068 19.3235 24.9937 18.7332 24.976C18.7125 24.9756 18.6917 24.9753 18.671 24.9753C18.1011 24.9753 17.5468 25.1613 17.0922 25.505C16.702 25.7921 16.4047 26.1875 16.2373 26.6421C16.1503 26.8466 16.0935 27.0625 16.0685 27.2833V27.3004C16.0555 27.4139 16.0519 27.5283 16.0578 27.6424C16.0581 27.731 16.0638 27.8195 16.0749 27.9074C16.0738 27.9187 16.0738 27.9302 16.0749 27.9416C16.098 28.1607 16.1481 28.376 16.2243 28.5828C16.2798 28.7239 16.3479 28.8598 16.4275 28.9889C16.5926 29.2826 16.8185 29.5377 17.0901 29.737C17.1104 29.7567 17.1319 29.7752 17.1543 29.7925L16.9084 29.91C16.1875 30.2619 15.5776 30.8057 15.1455 31.4816C16.147 32.6653 17.3745 33.6376 18.756 34.3416C19.1043 33.3545 19.7357 32.4919 20.5713 31.8616C20.4626 31.6796 20.369 31.489 20.2913 31.2917L20.2865 31.2796L20.282 31.2674C20.2664 31.2251 20.2533 31.1819 20.2392 31.1391C20.1489 30.8679 20.088 30.5878 20.0575 30.3036L20.057 30.2995L20.0566 30.2953C20.0538 30.2669 20.0519 30.2384 20.051 30.2099C20.0403 30.1061 20.0343 30.0006 20.033 29.8951C20.0265 29.7431 20.0303 29.5909 20.0442 29.4395V29.4153L20.0516 29.3497C20.0897 29.0121 20.1753 28.6815 20.3058 28.3678C20.5087 27.8297 20.8315 27.3449 21.2497 26.9503C21.2377 26.9034 21.2256 26.8564 21.2108 26.8101C21.0554 26.322 20.7539 25.8933 20.3471 25.582Z" fill="white" fill-opacity="0.5"/>
<path d="M39.9264 22.9805H39.7855C39.5329 19.1475 37.8962 15.5367 35.1799 12.8204C32.4637 10.1042 28.8529 8.46743 25.0198 8.21491V8.07397C25.0198 7.80358 24.9124 7.54426 24.7212 7.35306C24.53 7.16186 24.2707 7.05444 24.0003 7.05444C23.7299 7.05444 23.4706 7.16186 23.2794 7.35306C23.0882 7.54426 22.9808 7.80358 22.9808 8.07397V8.21491C19.1477 8.46743 15.537 10.1042 12.8207 12.8204C10.1044 15.5367 8.46768 19.1475 8.21516 22.9805H8.07422C7.94033 22.9805 7.80776 23.0069 7.68406 23.0581C7.56037 23.1094 7.44797 23.1845 7.3533 23.2792C7.25863 23.3738 7.18353 23.4862 7.13229 23.6099C7.08106 23.7336 7.05469 23.8662 7.05469 24.0001C7.05469 24.134 7.08106 24.2665 7.13229 24.3902C7.18353 24.5139 7.25863 24.6263 7.3533 24.721C7.44797 24.8157 7.56037 24.8908 7.68406 24.942C7.80776 24.9932 7.94033 25.0196 8.07422 25.0196H8.21516C8.47873 29.1141 10.326 32.9452 13.3657 35.7011C13.5789 35.8951 13.7976 36.083 14.0217 36.265C14.2835 36.4784 14.552 36.6837 14.8272 36.8808C15.1204 37.0901 15.4209 37.2895 15.7288 37.4787C16.5866 38.0072 17.4932 38.4522 18.4359 38.8077C18.6517 38.8891 18.8697 38.9657 19.0898 39.0378C19.9397 39.3161 20.8118 39.5212 21.6966 39.6508C22.1195 39.7127 22.5475 39.7576 22.9808 39.7853V39.9262C22.9808 40.1966 23.0882 40.4559 23.2794 40.6471C23.4706 40.8383 23.7299 40.9457 24.0003 40.9457C24.2707 40.9457 24.53 40.8383 24.7212 40.6471C24.9124 40.4559 25.0198 40.1966 25.0198 39.9262V39.7853C25.4528 39.7576 25.8809 39.7127 26.3041 39.6508C27.1893 39.521 28.0619 39.3158 28.9122 39.0373C29.1321 38.9654 29.3499 38.8887 29.5655 38.8074C30.508 38.452 31.4142 38.0071 32.2719 37.4787C32.5793 37.2894 32.8798 37.0901 33.1733 36.8808C33.4491 36.6838 33.7182 36.4781 33.9805 36.2638C34.2039 36.0816 34.4223 35.8938 34.6358 35.7003C37.6749 32.9444 39.5219 29.1137 39.7855 25.0196H39.9264C40.1968 25.0196 40.4561 24.9122 40.6473 24.721C40.8385 24.5298 40.9459 24.2705 40.9459 24.0001C40.9459 23.7297 40.8385 23.4703 40.6473 23.2791C40.4561 23.0879 40.1968 22.9805 39.9264 22.9805L39.9264 22.9805ZM35.5523 22.9805H35.3165C35.0461 22.9805 34.7868 23.088 34.5956 23.2792C34.4044 23.4704 34.297 23.7297 34.297 24.0001C34.297 24.2705 34.4044 24.5298 34.5956 24.721C34.7868 24.9122 35.0461 25.0196 35.3165 25.0196H37.7384C37.5274 27.8989 36.4131 30.6382 34.5543 32.8473C34.3846 33.0493 34.2083 33.2455 34.0275 33.4375C33.844 33.6323 33.655 33.8217 33.4605 34.0055C32.488 34.926 31.3871 35.7005 30.1922 36.3047C29.9909 36.4064 29.787 36.5032 29.5802 36.5952C29.3881 36.6806 29.1938 36.7617 28.9971 36.8383C28.9519 36.8559 28.9072 36.8746 28.8618 36.8918C28.7131 36.948 28.5627 37.0004 28.4117 37.0516C27.3155 37.4261 26.1754 37.6569 25.0198 37.7383V35.5521C25.0678 35.5479 25.1165 35.5458 25.1643 35.5411C26.1925 35.4376 27.2021 35.196 28.1659 34.8229C28.0081 34.328 27.7506 33.8706 27.4092 33.4791L27.3139 33.3678C27.2801 33.3315 27.2528 33.2929 27.2187 33.2588C26.8311 32.8585 26.3801 32.5249 25.8839 32.2712L25.6251 32.1464C25.6408 32.1464 25.6523 32.1215 25.6659 32.1101C26.0893 31.8046 26.4124 31.3803 26.5945 30.891C26.5945 30.891 26.6612 30.6662 26.6875 30.5732C26.7027 30.524 26.7151 30.4741 26.7274 30.4243C26.8499 29.9217 26.824 29.3945 26.6529 28.9063C26.4818 28.4182 26.1728 27.9902 25.7633 27.6741C25.2783 27.2768 24.6758 27.0505 24.0491 27.0305C24.027 27.03 24.0048 27.0298 23.9827 27.0298C23.4581 27.0299 22.9442 27.1785 22.5005 27.4584C22.4341 27.5002 22.3692 27.5449 22.306 27.5923C21.8918 27.8975 21.5761 28.3174 21.398 28.8001C21.3056 29.0173 21.2452 29.2467 21.2187 29.4812V29.4994C21.2125 29.5525 21.2092 29.6059 21.207 29.6593L21.2066 29.6642C21.2041 29.7303 21.2039 29.7965 21.2073 29.8626C21.2077 29.9567 21.2137 30.0507 21.2255 30.1441C21.2243 30.1561 21.2243 30.1683 21.2255 30.1804C21.2345 30.2655 21.2486 30.3498 21.2652 30.4337C21.2935 30.5792 21.3333 30.7222 21.3841 30.8615C21.4222 30.9563 21.4656 31.049 21.5142 31.1389C21.5417 31.1908 21.5691 31.2427 21.6 31.2928C21.7753 31.6048 22.0152 31.8757 22.3037 32.0874C22.3254 32.1083 22.3481 32.128 22.3719 32.1464L22.1109 32.2712C20.9548 32.8712 20.1925 33.7202 19.8333 34.8223C20.7979 35.1959 21.8085 35.4377 22.8378 35.5412C22.8852 35.5459 22.9333 35.548 22.9808 35.5521V37.7383C21.8249 37.6569 20.6844 37.4259 19.5879 37.0512C19.4372 37.0001 19.2871 36.9479 19.1388 36.8918C19.093 36.8744 19.0478 36.8556 19.0022 36.8378C18.8052 36.7608 18.6103 36.6795 18.4177 36.594C18.2119 36.5024 18.0088 36.406 17.8084 36.3047C16.6118 35.6996 15.5095 34.9238 14.5361 34.0016C14.3403 33.8163 14.15 33.6255 13.9652 33.4291C13.7845 33.2369 13.6083 33.0408 13.4387 32.8385C11.5844 30.6309 10.4729 27.895 10.2622 25.0196H12.6842C12.8181 25.0196 12.9507 24.9932 13.0744 24.942C13.1981 24.8908 13.3105 24.8157 13.4051 24.721C13.4998 24.6263 13.5749 24.5139 13.6261 24.3902C13.6774 24.2665 13.7037 24.134 13.7037 24.0001C13.7037 23.8662 13.6774 23.7336 13.6261 23.6099C13.5749 23.4862 13.4998 23.3738 13.4051 23.2792C13.3105 23.1845 13.1981 23.1094 13.0744 23.0582C12.9507 23.0069 12.8181 22.9805 12.6842 22.9805H10.2622C10.5105 19.6898 11.9303 16.5971 14.2638 14.2636C16.5973 11.93 19.69 10.5103 22.9808 10.262V12.684C22.9808 12.9544 23.0882 13.2137 23.2794 13.4049C23.4706 13.5961 23.7299 13.7035 24.0003 13.7035C24.2707 13.7035 24.53 13.5961 24.7212 13.4049C24.9124 13.2137 25.0198 12.9544 25.0198 12.684V10.2619C28.3106 10.5103 31.4033 11.93 33.7368 14.2635C36.0704 16.5971 37.4901 19.6898 37.7384 22.9805H35.5523Z" fill="white" fill-opacity="0.5"/>
</g>
<defs>
<clipPath id="clip0_78_2471">
<rect width="48" height="48" fill="white"/>
</clipPath>
</defs>
</svg>
