<svg width="48" height="48" viewBox="0 0 48 48" fill="none" xmlns="http://www.w3.org/2000/svg">
<g clip-path="url(#clip0_119_2985)">
<path d="M24 1.59976C28.4303 1.59976 32.7611 2.91351 36.4448 5.37485C40.1284 7.8362 42.9995 11.3346 44.6949 15.4277C46.3903 19.5207 46.8339 24.0246 45.9696 28.3698C45.1053 32.715 42.9719 36.7063 39.8392 39.839C35.6384 44.0398 29.9409 46.3998 24 46.3998C18.0592 46.3998 12.3617 44.0398 8.16083 39.839C3.96001 35.6382 1.60001 29.9407 1.6 23.9998C1.59999 18.059 3.95998 12.3614 8.16079 8.16061C10.236 6.07404 12.7044 4.4198 15.4232 3.29362C18.142 2.16745 21.0572 1.59172 24 1.59976ZM24 -0.000244141C19.2533 -0.000244141 14.6131 1.40733 10.6663 4.04448C6.71955 6.68164 3.64341 10.4299 1.8269 14.8154C0.0103989 19.2008 -0.464881 24.0264 0.461164 28.6819C1.38721 33.3375 3.67299 37.6139 7.02945 40.9703C10.3859 44.3268 14.6623 46.6126 19.3178 47.5386C23.9734 48.4646 28.799 47.9894 33.1844 46.1729C37.5698 44.3564 41.3181 41.2802 43.9553 37.3334C46.5924 33.3867 48 28.7465 48 23.9998C48 17.6346 45.4714 11.5301 40.9706 7.0292C36.4697 2.52833 30.3652 -0.000234381 24 -0.000244141Z" fill="#F04451"/>
<path d="M28.2731 23.9459L28.2201 23.8839C28.177 23.8377 28.1423 23.7885 28.0989 23.7452C27.6051 23.2353 27.0307 22.8103 26.3987 22.4873L26.0691 22.3283C26.089 22.3283 26.1038 22.2965 26.121 22.282C26.664 21.8967 27.0766 21.355 27.3037 20.7292C27.3037 20.7292 27.3888 20.443 27.4223 20.3244C27.6271 19.6624 27.624 18.9535 27.4136 18.2932C27.2031 17.633 26.7953 17.0531 26.2451 16.6318C25.6306 16.1199 24.861 15.8309 24.0615 15.812C23.2619 15.7931 22.4795 16.0454 21.8416 16.5277C21.3136 16.9161 20.9113 17.451 20.6848 18.066C20.5672 18.3426 20.4903 18.6348 20.4565 18.9335V18.9566C20.4389 19.1102 20.4341 19.2649 20.442 19.4193C20.4425 19.5392 20.4502 19.6589 20.4652 19.7779C20.4637 19.7933 20.4637 19.8088 20.4652 19.8241C20.4964 20.1206 20.5643 20.4119 20.6673 20.6916C20.7424 20.8826 20.8345 21.0664 20.9423 21.241C21.1655 21.6384 21.4711 21.9835 21.8386 22.2531C21.8661 22.2797 21.8951 22.3049 21.9254 22.3283L21.5929 22.4873C20.8739 22.8474 20.2305 23.3417 19.6973 23.9435C20.2029 24.0858 20.6735 24.3312 21.0796 24.6643C21.6114 25.0763 22.0191 25.627 22.2579 26.2559C22.7952 25.9946 23.3845 25.8578 23.982 25.8557C24.0134 25.8557 24.045 25.8561 24.076 25.8568C24.6566 25.872 25.2267 26.0146 25.746 26.2745C25.7545 26.2528 25.7616 26.2307 25.7705 26.2092C26.0177 25.552 26.45 24.9805 27.0151 24.5637C27.3925 24.2816 27.8191 24.0721 28.2731 23.9459Z" fill="#F04451"/>
<path d="M32.4318 30.9424C32.3999 30.9082 32.3743 30.8718 32.3423 30.8398C31.9773 30.4629 31.5527 30.1488 31.0855 29.91L30.8419 29.7925C30.8567 29.7925 30.8675 29.769 30.8803 29.7583C31.2817 29.4735 31.5866 29.0732 31.7545 28.6106C31.7545 28.6106 31.8174 28.399 31.8421 28.3114C31.9935 27.822 31.9913 27.298 31.8357 26.81C31.6801 26.322 31.3787 25.8934 30.972 25.582C30.5179 25.2035 29.9491 24.99 29.3581 24.976C29.3374 24.9756 29.3166 24.9753 29.2959 24.9753C28.7268 24.9801 28.1739 25.1656 27.7171 25.505C27.3269 25.7921 27.0296 26.1875 26.8622 26.6421C26.8165 26.75 26.7792 26.8611 26.7505 26.9746C27.2793 27.4638 27.6594 28.0922 27.8473 28.7876C28.0352 29.483 28.0232 30.2173 27.8128 30.9062C27.7988 30.955 27.7678 31.0979 27.7678 31.0979L27.7528 31.1391L27.6973 31.2921C27.6244 31.4928 27.5347 31.6869 27.429 31.8724C27.6508 32.0464 27.8606 32.2353 28.057 32.4376C28.1105 32.492 28.1506 32.5405 28.1752 32.5701L28.181 32.5771L28.189 32.5858L28.2048 32.6041L28.2967 32.7114C28.7118 33.1906 29.032 33.7444 29.2403 34.3433C30.6205 33.6405 31.8471 32.6699 32.8484 31.4882C32.7509 31.333 32.6416 31.1856 32.5216 31.0472L32.4318 30.9424Z" fill="#F04451"/>
<path d="M20.3471 25.582C19.8911 25.2068 19.3235 24.9937 18.7332 24.976C18.7125 24.9756 18.6917 24.9753 18.671 24.9753C18.1011 24.9753 17.5468 25.1613 17.0922 25.505C16.702 25.7921 16.4047 26.1875 16.2373 26.6421C16.1503 26.8466 16.0935 27.0625 16.0685 27.2833V27.3004C16.0555 27.4139 16.0519 27.5283 16.0578 27.6424C16.0581 27.731 16.0638 27.8195 16.0749 27.9074C16.0738 27.9187 16.0738 27.9302 16.0749 27.9416C16.098 28.1607 16.1481 28.376 16.2243 28.5828C16.2798 28.7239 16.3479 28.8598 16.4275 28.9889C16.5926 29.2826 16.8185 29.5377 17.0901 29.737C17.1104 29.7567 17.1319 29.7752 17.1543 29.7925L16.9084 29.91C16.1875 30.2619 15.5776 30.8057 15.1455 31.4816C16.147 32.6653 17.3745 33.6376 18.756 34.3416C19.1043 33.3545 19.7357 32.4919 20.5713 31.8616C20.4626 31.6796 20.369 31.489 20.2913 31.2917L20.2865 31.2796L20.282 31.2674C20.2664 31.2251 20.2533 31.1819 20.2392 31.1391C20.1489 30.8679 20.088 30.5878 20.0575 30.3036L20.057 30.2995L20.0566 30.2953C20.0538 30.2669 20.0519 30.2384 20.051 30.2099C20.0403 30.1061 20.0343 30.0006 20.033 29.8951C20.0265 29.7431 20.0303 29.5909 20.0442 29.4395V29.4153L20.0516 29.3497C20.0897 29.0121 20.1753 28.6815 20.3058 28.3678C20.5087 27.8297 20.8315 27.3449 21.2497 26.9503C21.2377 26.9034 21.2256 26.8564 21.2108 26.8101C21.0554 26.322 20.7539 25.8933 20.3471 25.582Z" fill="#F04451"/>
<path d="M39.9259 22.9805H39.785C39.5325 19.1475 37.8957 15.5367 35.1795 12.8204C32.4632 10.1042 28.8524 8.46743 25.0194 8.21491V8.07397C25.0194 7.80358 24.9119 7.54426 24.7207 7.35306C24.5295 7.16186 24.2702 7.05444 23.9998 7.05444C23.7294 7.05444 23.4701 7.16186 23.2789 7.35306C23.0877 7.54426 22.9803 7.80358 22.9803 8.07397V8.21491C19.1472 8.46743 15.5365 10.1042 12.8202 12.8204C10.1039 15.5367 8.46719 19.1475 8.21467 22.9805H8.07373C7.93984 22.9805 7.80727 23.0069 7.68357 23.0581C7.55988 23.1094 7.44748 23.1845 7.35281 23.2792C7.25814 23.3738 7.18304 23.4862 7.13181 23.6099C7.08057 23.7336 7.0542 23.8662 7.0542 24.0001C7.0542 24.134 7.08057 24.2665 7.13181 24.3902C7.18304 24.5139 7.25814 24.6263 7.35281 24.721C7.44748 24.8157 7.55988 24.8908 7.68357 24.942C7.80727 24.9932 7.93984 25.0196 8.07373 25.0196H8.21467C8.47825 29.1141 10.3256 32.9452 13.3652 35.7011C13.5784 35.8951 13.7971 36.083 14.0212 36.265C14.283 36.4784 14.5515 36.6837 14.8267 36.8808C15.1199 37.0901 15.4204 37.2895 15.7283 37.4787C16.5861 38.0072 17.4927 38.4522 18.4354 38.8077C18.6512 38.8891 18.8692 38.9657 19.0894 39.0378C19.9392 39.3161 20.8113 39.5212 21.6961 39.6508C22.119 39.7127 22.547 39.7576 22.9803 39.7853V39.9262C22.9803 40.1966 23.0877 40.4559 23.2789 40.6471C23.4701 40.8383 23.7294 40.9457 23.9998 40.9457C24.2702 40.9457 24.5295 40.8383 24.7207 40.6471C24.9119 40.4559 25.0194 40.1966 25.0194 39.9262V39.7853C25.4523 39.7576 25.8804 39.7127 26.3036 39.6508C27.1889 39.521 28.0614 39.3158 28.9117 39.0373C29.1316 38.9654 29.3494 38.8887 29.565 38.8074C30.5075 38.452 31.4138 38.0071 32.2714 37.4787C32.5788 37.2894 32.8793 37.0901 33.1728 36.8808C33.4486 36.6838 33.7177 36.4781 33.98 36.2638C34.2034 36.0816 34.4219 35.8938 34.6353 35.7003C37.6744 32.9444 39.5214 29.1137 39.785 25.0196H39.9259C40.1963 25.0196 40.4556 24.9122 40.6468 24.721C40.838 24.5298 40.9454 24.2705 40.9454 24.0001C40.9454 23.7297 40.838 23.4703 40.6468 23.2791C40.4556 23.0879 40.1963 22.9805 39.9259 22.9805L39.9259 22.9805ZM35.5519 22.9805H35.316C35.0456 22.9805 34.7863 23.088 34.5951 23.2792C34.4039 23.4704 34.2965 23.7297 34.2965 24.0001C34.2965 24.2705 34.4039 24.5298 34.5951 24.721C34.7863 24.9122 35.0456 25.0196 35.316 25.0196H37.738C37.5269 27.8989 36.4126 30.6382 34.5538 32.8473C34.3841 33.0493 34.2078 33.2455 34.027 33.4375C33.8435 33.6323 33.6545 33.8217 33.46 34.0055C32.4875 34.926 31.3866 35.7005 30.1917 36.3047C29.9904 36.4064 29.7865 36.5032 29.5797 36.5952C29.3876 36.6806 29.1933 36.7617 28.9966 36.8383C28.9514 36.8559 28.9067 36.8746 28.8613 36.8918C28.7126 36.948 28.5622 37.0004 28.4112 37.0516C27.315 37.4261 26.1749 37.6569 25.0194 37.7383V35.5521C25.0673 35.5479 25.116 35.5458 25.1638 35.5411C26.1921 35.4376 27.2017 35.196 28.1654 34.8229C28.0076 34.328 27.7501 33.8706 27.4087 33.4791L27.3134 33.3678C27.2796 33.3315 27.2523 33.2929 27.2183 33.2588C26.8306 32.8585 26.3796 32.5249 25.8834 32.2712L25.6246 32.1464C25.6403 32.1464 25.6519 32.1215 25.6654 32.1101C26.0888 31.8046 26.412 31.3803 26.594 30.891C26.594 30.891 26.6608 30.6662 26.687 30.5732C26.7022 30.524 26.7146 30.4741 26.7269 30.4243C26.8494 29.9217 26.8235 29.3945 26.6524 28.9063C26.4813 28.4182 26.1723 27.9902 25.7628 27.6741C25.2778 27.2768 24.6753 27.0505 24.0487 27.0305C24.0265 27.03 24.0044 27.0298 23.9823 27.0298C23.4576 27.0299 22.9437 27.1785 22.5 27.4584C22.4336 27.5002 22.3688 27.5449 22.3055 27.5923C21.8913 27.8975 21.5756 28.3174 21.3975 28.8001C21.3051 29.0173 21.2447 29.2467 21.2182 29.4812V29.4994C21.212 29.5525 21.2087 29.6059 21.2065 29.6593L21.2062 29.6642C21.2037 29.7303 21.2034 29.7965 21.2068 29.8626C21.2072 29.9567 21.2133 30.0507 21.225 30.1441C21.2238 30.1561 21.2238 30.1683 21.225 30.1804C21.234 30.2655 21.2481 30.3498 21.2647 30.4337C21.293 30.5792 21.3328 30.7222 21.3837 30.8615C21.4217 30.9563 21.4651 31.049 21.5137 31.1389C21.5412 31.1908 21.5686 31.2427 21.5995 31.2928C21.7748 31.6048 22.0147 31.8757 22.3033 32.0874C22.3249 32.1083 22.3476 32.128 22.3714 32.1464L22.1104 32.2712C20.9544 32.8712 20.192 33.7202 19.8328 34.8223C20.7974 35.1959 21.808 35.4377 22.8373 35.5412C22.8847 35.5459 22.9328 35.548 22.9803 35.5521V37.7383C21.8244 37.6569 20.6839 37.4259 19.5874 37.0512C19.4367 37.0001 19.2866 36.9479 19.1383 36.8918C19.0925 36.8744 19.0473 36.8556 19.0017 36.8378C18.8047 36.7608 18.6098 36.6795 18.4172 36.594C18.2114 36.5024 18.0083 36.406 17.8079 36.3047C16.6113 35.6996 15.509 34.9238 14.5356 34.0016C14.3398 33.8163 14.1495 33.6255 13.9647 33.4291C13.784 33.2369 13.6078 33.0408 13.4383 32.8385C11.5839 30.6309 10.4724 27.895 10.2617 25.0196H12.6837C12.8176 25.0196 12.9502 24.9932 13.0739 24.942C13.1976 24.8908 13.31 24.8157 13.4046 24.721C13.4993 24.6263 13.5744 24.5139 13.6257 24.3902C13.6769 24.2665 13.7033 24.134 13.7033 24.0001C13.7033 23.8662 13.6769 23.7336 13.6257 23.6099C13.5744 23.4862 13.4993 23.3738 13.4046 23.2792C13.31 23.1845 13.1976 23.1094 13.0739 23.0582C12.9502 23.0069 12.8176 22.9805 12.6837 22.9805H10.2617C10.51 19.6898 11.9298 16.5971 14.2633 14.2636C16.5968 11.93 19.6895 10.5103 22.9803 10.262V12.684C22.9803 12.9544 23.0877 13.2137 23.2789 13.4049C23.4701 13.5961 23.7294 13.7035 23.9998 13.7035C24.2702 13.7035 24.5295 13.5961 24.7207 13.4049C24.9119 13.2137 25.0194 12.9544 25.0194 12.684V10.2619C28.3101 10.5103 31.4028 11.93 33.7364 14.2635C36.0699 16.5971 37.4896 19.6898 37.738 22.9805H35.5519Z" fill="#F04451"/>
</g>
<defs>
<clipPath id="clip0_119_2985">
<rect width="48" height="48" fill="white"/>
</clipPath>
</defs>
</svg>
