<svg width="55" height="55" viewBox="0 0 55 55" fill="none" xmlns="http://www.w3.org/2000/svg">
<rect width="55" height="55" rx="15" fill="#141523"/>
<path d="M46.4224 18.0665C46.6868 17.1641 46.4224 16.5 45.1502 16.5H40.9405C39.8684 16.5 39.3753 17.0703 39.1108 17.7055C39.1108 17.7055 36.9667 22.9824 33.9363 26.4041C32.9571 27.3931 32.5069 27.7107 31.9708 27.7107C31.7064 27.7107 31.299 27.3931 31.299 26.4907V18.0665C31.299 16.9837 30.9988 16.5 30.1126 16.5H23.4943C22.8225 16.5 22.4223 17.0053 22.4223 17.4745C22.4223 18.4996 23.9375 18.7378 24.0947 21.6253V27.8912C24.0947 29.2627 23.8517 29.5154 23.3157 29.5154C21.8862 29.5154 18.4127 24.2168 16.3543 18.1531C15.9398 16.9764 15.5324 16.5 14.4532 16.5H10.2435C9.04281 16.5 8.7998 17.0703 8.7998 17.7055C8.7998 18.8317 10.2292 24.4262 15.4538 31.8182C18.9345 36.8641 23.8374 39.6 28.2972 39.6C30.9774 39.6 31.3062 38.9936 31.3062 37.9469C31.3062 33.1248 31.0632 32.67 32.4068 32.67C33.0286 32.67 34.1007 32.9876 36.6022 35.4203C39.461 38.3078 39.9328 39.6 41.5337 39.6H45.7434C46.9441 39.6 47.5516 38.9936 47.2014 37.7953C46.4009 35.276 40.9905 30.0929 40.7475 29.7464C40.1257 28.9379 40.3044 28.577 40.7475 27.8551C40.7547 27.8479 45.8935 20.5425 46.4224 18.0665Z" fill="#139BEA"/>
</svg>
