<svg width="48" height="48" viewBox="0 0 48 48" fill="none" xmlns="http://www.w3.org/2000/svg">
<g clip-path="url(#clip0_119_3000)">
<path d="M23.9995 1.59878C28.4298 1.59878 32.7606 2.91252 36.4443 5.37387C40.128 7.83521 42.999 11.3336 44.6944 15.4267C46.3898 19.5198 46.8334 24.0236 45.9691 28.3688C45.1048 32.714 42.9714 36.7053 39.8387 39.838C35.6372 44.0354 29.9407 46.3925 24.0018 46.3911C18.0628 46.3896 12.3675 44.0297 8.16808 39.8303C3.9686 35.6308 1.60872 29.9355 1.60726 23.9966C1.6058 18.0576 3.96289 12.3612 8.1603 8.15964C10.2355 6.07307 12.7039 4.41882 15.4227 3.29265C18.1415 2.16647 21.0567 1.59074 23.9995 1.59878ZM23.9995 -0.0012207C19.2528 -0.0012207 14.6126 1.40635 10.6658 4.04351C6.71906 6.68066 3.64292 10.429 1.82641 14.8144C0.00991058 19.1998 -0.46537 24.0254 0.460676 28.6809C1.38672 33.3365 3.6725 37.6129 7.02896 40.9693C10.3854 44.3258 14.6618 46.6116 19.3174 47.5376C23.9729 48.4637 28.7985 47.9884 33.1839 46.1719C37.5694 44.3554 41.3176 41.2792 43.9548 37.3325C46.5919 33.3857 47.9995 28.7455 47.9995 23.9988C47.9995 17.6336 45.4709 11.5291 40.9701 7.02823C36.4692 2.52736 30.3647 -0.00121094 23.9995 -0.0012207Z" fill="#F04451"/>
<path d="M33.8199 15.7726C33.7948 15.7605 33.7691 15.7498 33.7428 15.7407L33.7431 15.7398C33.7431 15.7398 33.7339 15.737 33.719 15.7325C33.7135 15.7309 33.708 15.7293 33.7025 15.7276C33.6902 15.7239 33.6743 15.7191 33.6564 15.7138C33.6318 15.7065 33.6014 15.6975 33.5665 15.6872C32.9046 15.4916 30.4121 14.7698 27.0947 13.9859C24.1126 13.2813 23.0406 14.6718 21.0933 16.6191C19.3101 18.4023 11.5539 26.7952 10.0532 28.3892C9.91622 28.5348 9.84005 28.7273 9.84033 28.9272V31.818C9.84032 31.994 9.89936 32.1649 10.008 32.3033C10.1166 32.4417 10.2686 32.5397 10.4395 32.5815L17.6455 34.3458C17.7629 34.3745 17.8854 34.3758 18.0034 34.3495C18.1214 34.3232 18.2318 34.27 18.3259 34.1941L24.453 29.4241L26.9449 27.4165L28.3209 26.3079L27.0687 27.8226L25.552 29.6574L29.7174 30.8099L29.718 30.8088C29.7868 30.8297 29.8562 30.8493 29.9269 30.8653C32.5424 31.46 35.4376 28.5336 36.3936 24.329C37.2955 20.3623 36.1487 16.6765 33.8199 15.7726ZM17.556 33.2559C17.5559 33.3232 17.5407 33.3896 17.5112 33.4501C17.4818 33.5106 17.439 33.5636 17.3861 33.6051C17.3332 33.6467 17.2715 33.6756 17.2057 33.6898C17.14 33.704 17.0718 33.7031 17.0065 33.6871L10.646 32.1304C10.5494 32.1068 10.4636 32.0514 10.4022 31.9733C10.3409 31.8951 10.3075 31.7986 10.3075 31.6992V29.7976C10.3075 29.7304 10.3228 29.664 10.3523 29.6035C10.3817 29.543 10.4245 29.4899 10.4774 29.4484C10.5304 29.4069 10.592 29.3779 10.6578 29.3637C10.7236 29.3495 10.7917 29.3505 10.857 29.3665L17.2175 30.9232C17.3141 30.9468 17.3999 31.0021 17.4612 31.0803C17.5226 31.1585 17.5559 31.255 17.556 31.3544V33.2559ZM26.8704 19.6548L24.7365 21.8958C24.6774 21.9578 24.603 22.0032 24.5208 22.0273C24.4385 22.0514 24.3514 22.0534 24.2681 22.033L19.0112 20.7474C18.9282 20.7271 18.852 20.6853 18.7903 20.6263C18.7285 20.5672 18.6834 20.493 18.6594 20.411C18.6355 20.3289 18.6335 20.2421 18.6537 20.1591C18.674 20.0761 18.7157 19.9998 18.7747 19.938L20.9079 17.704C20.9669 17.6421 21.0412 17.5969 21.1232 17.5729C21.2053 17.5489 21.2922 17.5469 21.3752 17.5671L26.6328 18.8458C26.7158 18.866 26.7921 18.9076 26.8539 18.9666C26.9157 19.0256 26.9609 19.0998 26.985 19.1817C27.0091 19.2637 27.0111 19.3506 26.991 19.4336C26.9709 19.5166 26.9293 19.5929 26.8704 19.6548L26.8704 19.6548ZM35.214 24.1726C34.6246 26.7646 32.8398 28.5687 31.2275 28.2021C31.1243 28.1785 31.0232 28.1462 30.9253 28.1058C29.5142 27.5246 28.8239 25.2698 29.3752 22.8451C29.9646 20.2532 31.7494 18.4491 33.3617 18.8158C33.6295 18.878 33.8812 18.996 34.1004 19.162C35.2108 19.9899 35.7049 22.0136 35.214 24.1726H35.214Z" fill="#F04451"/>
</g>
<defs>
<clipPath id="clip0_119_3000">
<rect width="48" height="48" fill="white"/>
</clipPath>
</defs>
</svg>
