<svg width="29" height="17" viewBox="0 0 29 17" fill="none" xmlns="http://www.w3.org/2000/svg">
<path d="M27.8505 1.11891C28.0462 0.474375 27.8505 0 26.9087 0H23.7925C22.9989 0 22.6338 0.407344 22.438 0.861094C22.438 0.861094 20.8508 4.63031 18.6075 7.07437C17.8827 7.78078 17.5494 8.00766 17.1526 8.00766C16.9568 8.00766 16.6553 7.78078 16.6553 7.13625V1.11891C16.6553 0.345469 16.433 0 15.777 0H10.8778C10.3804 0 10.0842 0.360938 10.0842 0.696094C10.0842 1.42828 11.2058 1.59844 11.3222 3.66094V8.13656C11.3222 9.11625 11.1423 9.29672 10.7455 9.29672C9.68735 9.29672 7.11605 5.51203 5.59231 1.18078C5.28545 0.340313 4.98388 0 4.18498 0H1.06873C0.179885 0 0 0.407344 0 0.861094C0 1.66547 1.05815 5.66156 4.92568 10.9416C7.50227 14.5458 11.1317 16.5 14.4331 16.5C16.4172 16.5 16.6605 16.0669 16.6605 15.3192C16.6605 11.8748 16.4807 11.55 17.4753 11.55C17.9356 11.55 18.7292 11.7769 20.581 13.5145C22.6973 15.577 23.0465 16.5 24.2316 16.5H27.3478C28.2367 16.5 28.6864 16.0669 28.4272 15.2109C27.8346 13.4114 23.8295 9.70922 23.6496 9.46172C23.1893 8.88422 23.3216 8.62641 23.6496 8.11078C23.6549 8.10563 27.459 2.8875 27.8505 1.11891Z" fill="#FAFAFA"/>
</svg>
