<svg width="29" height="24" viewBox="0 0 29 24" fill="none" xmlns="http://www.w3.org/2000/svg">
<path d="M28.4045 3.98388C28.0767 2.54682 27.111 1.41503 25.8848 1.03094C23.6622 0.333008 14.75 0.333008 14.75 0.333008C14.75 0.333008 5.83785 0.333008 3.61524 1.03094C2.38904 1.41509 1.42331 2.54682 1.09554 3.98388C0.5 6.58865 0.5 12.0232 0.5 12.0232C0.5 12.0232 0.5 17.4578 1.09554 20.0626C1.42331 21.4997 2.38904 22.5843 3.61524 22.9684C5.83785 23.6663 14.75 23.6663 14.75 23.6663C14.75 23.6663 23.6622 23.6663 25.8848 22.9684C27.111 22.5843 28.0767 21.4997 28.4045 20.0626C29 17.4578 29 12.0232 29 12.0232C29 12.0232 29 6.58865 28.4045 3.98388ZM11.8352 16.9575V7.08904L19.284 12.0234L11.8352 16.9575Z" fill="#FAFAFA"/>
</svg>
